<?xml version="1.0" encoding="UTF-8"?>
<!DOCTYPE svg  PUBLIC '-//W3C//DTD SVG 1.1//EN'  'http://www.w3.org/Graphics/SVG/1.1/DTD/svg11.dtd'>
<svg version="1.1" xmlns="http://www.w3.org/2000/svg">
<defs>
<font id="GothicA1-Regular" horiz-adv-x="569">
<font-face font-family="Gothic A1" font-weight="400" ascent="817" bbox="-73 -239 919 1047" cap-height="749" descent="-207" panose-1="0 0 0 0 0 0 0 0 0 0" underline-position="-121" underline-thickness="45" unicode-range="U+0020-E030" units-per-em="1024" x-height="538"/>
<missing-glyph/>
<glyph glyph-name="space" horiz-adv-x="250" unicode=" "/>
<glyph d="M95 -10v115h126v-115h-126zM194 208h-71l-9 542h89z" glyph-name="exclam" horiz-adv-x="316" unicode="!"/>
<glyph d="M273 547l82 293h111l-130 -293h-63zM68 547l82 293h111l-130 -293h-63z" glyph-name="quotedbl" horiz-adv-x="497" unicode='"'/>
<glyph d="M49 206v60h130l27 196h-125v59h133l27 203h70l-27 -203h198l27 203h70l-27 -203h122v-59h-130l-25 -196h123v-60h-131l-27 -204h-73l28 204h-196l-27 -204h-73l28 204h-122zM251 266h196l27 196h-198z" glyph-name="numbersign" horiz-adv-x="722" unicode="#"/>
<glyph d="M63 137l60 30q30 -46 79.5 -73.5t99.5 -27.5q64 0 106.5 31.5t42.5 95.5q0 19 -5 35.5t-11.5 28.5t-21.5 24.5t-25 20t-34 19.5t-36 17t-43 17.5t-44 18.5q-74 32 -111.5 75t-37.5 114q0 66 48.5 119.5t133.5 62.5v84h73v-85q55 -3 104.5 -38t68.5 -78l-60 -29 q-59 84 -150 84q-64 0 -101.5 -34.5t-37.5 -86.5q0 -31 11.5 -54t42 -43t53 -30t75.5 -32q41 -16 68.5 -31t58 -39t46 -57.5t15.5 -75.5q0 -88 -55 -139t-139 -60v-78h-73v80q-58 4 -114.5 40t-86.5 94z" glyph-name="dollar" horiz-adv-x="598" unicode="$"/>
<glyph d="M537 163q0 80 54 130t137 50t137 -50t54 -130q0 -81 -54.5 -131t-136.5 -50t-136.5 50.5t-54.5 130.5zM611 163q0 -54 34.5 -86.5t82.5 -32.5t82.5 33t34.5 86q0 54 -33.5 86t-83.5 32q-49 0 -83 -32t-34 -86zM72 587q0 80 54 130t137 50t137 -50t54 -130t-54.5 -130 t-136.5 -50t-136.5 50t-54.5 130zM146 587q0 -54 34.5 -86.5t82.5 -32.5t82.5 33t34.5 86q0 54 -33.5 86.5t-83.5 32.5q-48 0 -82.5 -32.5t-34.5 -86.5zM186 0l537 749h81l-538 -749h-80z" glyph-name="percent" horiz-adv-x="991" unicode="%"/>
<glyph d="M141 189q0 -65 42.5 -103t109.5 -38q91 0 165 89l-185 251q-59 -41 -95.5 -88t-36.5 -111zM61 188q0 148 171 256q-3 5 -10 14q-25 35 -35.5 52t-19.5 42t-9 53q0 64 48.5 109t135.5 45q133 0 195 -126l-61 -27q-18 35 -53.5 61.5t-75.5 26.5q-51 0 -80 -26.5t-29 -65.5 q0 -41 59 -129t201 -273q31 62 46 146l72 -13q-17 -108 -68 -196l105 -137h-92l-59 77q-88 -95 -212 -95q-109 0 -169 59t-60 147z" glyph-name="ampersand" horiz-adv-x="653" unicode="&amp;"/>
<glyph d="M78 547l82 293h111l-130 -293h-63z" glyph-name="quotesingle" horiz-adv-x="307" unicode="'"/>
<glyph d="M153 359q0 289 174 509l56 -31q-31 -48 -42 -66t-38 -71.5t-38.5 -94.5t-22.5 -107.5t-11 -138.5q0 -88 12.5 -161.5t39.5 -135t46 -95t54 -86.5l-56 -31q-77 100 -125.5 220.5t-48.5 288.5z" glyph-name="parenleft" horiz-adv-x="454" unicode="("/>
<glyph d="M71 -119q75 110 113.5 218t38.5 260q0 86 -12 158t-38 133t-46 97t-56 90l56 31q174 -221 174 -509q0 -166 -48 -287t-126 -222z" glyph-name="parenright" horiz-adv-x="454" unicode=")"/>
<glyph d="M24 425l28 64l202 -78l-8 200h76l-8 -200l202 78l28 -64l-210 -74l156 -173l-58 -43l-148 183l-148 -183l-58 43l156 173z" glyph-name="asterisk" unicode="*"/>
<glyph d="M28 337v68h218v215h76v-215h218v-68h-218v-223h-76v223h-218z" glyph-name="plus" unicode="+"/>
<glyph d="M50 -174l82 293h111l-130 -293h-63z" glyph-name="comma" horiz-adv-x="352" unicode=","/>
<glyph d="M48 337v68h472v-68h-472z" glyph-name="hyphen" unicode="-"/>
<glyph d="M113 0v119h126v-119h-126z" glyph-name="period" horiz-adv-x="352" unicode="."/>
<glyph d="M-13 -57l288 853h82l-288 -853h-82z" glyph-name="slash" horiz-adv-x="344" unicode="/"/>
<glyph d="M132 374q0 -150 38 -238t116 -88q42 0 72 26.5t46.5 73.5t24 102.5t7.5 123.5q0 150 -37.5 239t-114.5 89q-76 0 -114 -88t-38 -240zM50 374q0 204 67 298.5t167 94.5q110 0 172 -101t62 -292q0 -114 -23.5 -200t-76.5 -139t-132 -53q-101 0 -168.5 97t-67.5 295z" glyph-name="zero" unicode="0"/>
<glyph d="M103 573v61h30q86 0 117 26t31 75v23h68v-768h-82v583h-164z" glyph-name="one" unicode="1"/>
<glyph d="M52 580q22 87 79.5 137t150.5 50q96 0 157 -55t61 -152q0 -112 -116 -223q-134 -128 -169 -169q-45 -53 -63 -102h348v-66h-444q0 38 16.5 79.5t35.5 71.5t63 77.5t67.5 70t81.5 76.5q98 93 98 186q0 67 -37.5 104t-100.5 37q-62 0 -102 -38t-56 -103z" glyph-name="two" unicode="2"/>
<glyph d="M38 129l66 26q56 -107 168 -107q70 0 117 41t47 119q0 73 -52 113.5t-126 40.5q-37 0 -60 -2v66q21 -2 56 -2q66 0 109 38.5t43 104.5q0 59 -38.5 97t-99.5 38q-96 0 -144 -114l-66 22q23 69 77 113t137 44q99 0 157.5 -55t58.5 -138q0 -65 -35 -111t-85 -65 q60 -16 105 -64t45 -126q0 -108 -67.5 -167t-178.5 -59q-87 0 -147.5 42t-86.5 105z" glyph-name="three" unicode="3"/>
<glyph d="M24 233l345 526h72v-524h108v-66h-108v-179h-80v179h-337v64zM102 235h259v286q0 63 4 120h-4l-67 -108z" glyph-name="four" unicode="4"/>
<glyph d="M48 121l66 25q22 -45 62.5 -71.5t89.5 -26.5q75 0 116.5 49t41.5 127q0 79 -45 128.5t-117 49.5q-82 0 -144 -67l-48 19l38 395h354v-66h-280l-28 -257q59 41 136 41q95 0 155.5 -65.5t60.5 -175.5q0 -102 -61 -173t-179 -71q-152 0 -218 139z" glyph-name="five" unicode="5"/>
<glyph d="M138 233q0 -81 42.5 -133t111.5 -52q66 0 109 51.5t43 133.5q0 84 -43.5 135.5t-110.5 51.5q-65 0 -108.5 -54t-43.5 -133zM52 334q0 65 8.5 125t28.5 117t50 98.5t76 67t103 25.5q132 0 198 -134l-64 -23q-52 92 -134 92q-43 0 -76 -22.5t-52.5 -61t-30.5 -76.5t-17 -82 q-6 -40 -10 -90q20 52 65.5 84t104.5 32q98 0 160 -72t62 -180t-61.5 -180t-166.5 -72q-111 0 -176 79q-68 82 -68 273z" glyph-name="six" unicode="6"/>
<glyph d="M42 681v68h462v-55q-197 -323 -282 -704h-82q41 198 108.5 360.5t163.5 330.5h-370z" glyph-name="seven" unicode="7"/>
<glyph d="M148 566q0 -61 39.5 -98t96.5 -37q58 0 97 38t39 97t-38.5 97.5t-97.5 38.5q-61 0 -98.5 -39.5t-37.5 -96.5zM42 200q0 80 42 130t102 70q-120 50 -120 170q0 83 61.5 140t156.5 57q93 0 155.5 -56t62.5 -141q0 -66 -35 -109t-85 -61q62 -19 104 -70t42 -131 q0 -95 -68.5 -156t-175.5 -61q-103 0 -172.5 59t-69.5 159zM124 204q0 -68 45.5 -112t114.5 -44t115.5 44.5t46.5 111.5q0 68 -47 115t-115 47q-67 0 -113.5 -46t-46.5 -116z" glyph-name="eight" unicode="8"/>
<glyph d="M122 517q0 -83 45.5 -134t106.5 -51q64 0 108 52.5t44 131.5q0 78 -42.5 132t-109.5 54q-64 0 -108 -51.5t-44 -133.5zM48 120l66 23q21 -42 57.5 -68.5t82.5 -26.5q49 0 84.5 26t55 73t28.5 102t10 122q-19 -42 -63 -73t-105 -31q-91 0 -156.5 67.5t-65.5 181.5 q0 111 66.5 181t165.5 70q85 0 143.5 -54.5t78.5 -140.5q14 -62 14 -160q0 -97 -14 -173.5t-44 -135t-80.5 -90t-119.5 -31.5q-73 0 -126.5 41.5t-77.5 96.5z" glyph-name="nine" unicode="9"/>
<glyph d="M113 84v119h126v-119h-126zM113 480v119h126v-119h-126z" glyph-name="colon" horiz-adv-x="352" unicode=":"/>
<glyph d="M50 -90l82 293h111l-130 -293h-63zM113 480v119h126v-119h-126z" glyph-name="semicolon" horiz-adv-x="352" unicode=";"/>
<glyph d="M54 327v71l422 314l42 -58l-388 -292l388 -292l-42 -58z" glyph-name="less" unicode="&lt;"/>
<glyph d="M48 238v68h472v-68h-472zM48 436v68h472v-68h-472z" glyph-name="equal" unicode="="/>
<glyph d="M92 12l-40 58l386 292l-386 292l40 58l424 -314v-71z" glyph-name="greater" unicode="&gt;"/>
<glyph d="M64 604q26 74 84 118.5t134 44.5q95 0 151.5 -55t56.5 -147q0 -46 -18.5 -83t-45 -63t-53 -51t-45 -60.5t-18.5 -79.5v-27h-80v32q0 49 18.5 88.5t44.5 66.5t52 51.5t44.5 57t18.5 70.5q0 60 -33.5 96.5t-91.5 36.5q-100 0 -149 -120zM207 -10v115h126v-115h-126z" glyph-name="question" horiz-adv-x="564" unicode="?"/>
<glyph d="M59 352q0 187 123.5 305.5t320.5 118.5q178 0 289.5 -103.5t111.5 -267.5q0 -75 -17.5 -132.5t-46.5 -89.5t-61 -48t-67 -16q-45 0 -78.5 31.5t-36.5 78.5h-1q-16 -41 -58.5 -75t-98.5 -34q-72 0 -120 54t-48 144q0 120 62.5 189t149.5 69q46 0 75.5 -20.5t42.5 -44.5 l4 56h61l-14 -287q-2 -49 16 -75t49 -26q52 0 85 58.5t33 162.5q0 142 -90 230t-243 88q-163 0 -268 -101.5t-105 -264.5q0 -169 100.5 -267t260.5 -98q118 0 223 31l13 -54q-107 -35 -236 -35q-196 0 -313.5 118t-117.5 305zM344 319q0 -60 28.5 -98t74.5 -38 q23 0 45.5 10.5t45.5 33.5t37 69.5t14 109.5q0 45 -25.5 78t-77.5 33q-54 0 -98 -53.5t-44 -144.5z" glyph-name="at" horiz-adv-x="963" unicode="@"/>
<glyph d="M184 280h282l-88 252q-8 23 -25.5 73.5t-24.5 70.5h-6q-42 -123 -49 -144zM-4 0l280 749h98l280 -749h-88l-76 216h-330l-76 -216h-88z" glyph-name="A" horiz-adv-x="650" unicode="A"/>
<glyph d="M104 0v749h276q109 0 165.5 -52t56.5 -140q0 -60 -30.5 -101.5t-77.5 -62.5q57 -17 96.5 -66t39.5 -118q0 -86 -56.5 -147.5t-157.5 -61.5h-312zM184 68h212q65 0 108.5 37.5t43.5 102.5q0 62 -42.5 103t-113.5 41h-208v-284zM184 419h182q67 0 110.5 33t43.5 99 q0 58 -35.5 94t-114.5 36h-186v-262z" glyph-name="B" horiz-adv-x="680" unicode="B"/>
<glyph d="M52 374q0 183 89 288t231 105q88 0 149.5 -48.5t92.5 -115.5l-68 -24q-67 120 -176 120q-108 0 -172 -88.5t-64 -236.5q0 -150 65 -236.5t171 -86.5q67 0 117 37.5t75 92.5l72 -23q-34 -73 -99 -124.5t-163 -51.5q-141 0 -230.5 104.5t-89.5 287.5z" glyph-name="C" horiz-adv-x="662" unicode="C"/>
<glyph d="M104 0v749h202q162 0 255 -95.5t93 -279.5q0 -175 -90 -274.5t-260 -99.5h-200zM184 68h108q130 0 205 73.5t75 232.5q0 161 -75 234t-203 73h-110v-613z" glyph-name="D" horiz-adv-x="701" unicode="D"/>
<glyph d="M104 0v749h468v-68h-388v-260h350v-67h-350v-286h396v-68h-476z" glyph-name="E" horiz-adv-x="620" unicode="E"/>
<glyph d="M104 0v749h454v-68h-374v-270h336v-67h-336v-344h-80z" glyph-name="F" horiz-adv-x="572" unicode="F"/>
<glyph d="M52 374q0 174 87.5 283.5t238.5 109.5q51 0 95 -15.5t73.5 -41.5t49 -50.5t32.5 -51.5l-68 -24q-71 115 -182 115q-115 0 -179.5 -89.5t-64.5 -235.5q0 -152 66 -237.5t174 -85.5q98 0 151 64t53 151v70h-212v68h290v-404h-58l-6 110q-59 -128 -220 -128 q-143 0 -231.5 105t-88.5 287z" glyph-name="G" horiz-adv-x="726" unicode="G"/>
<glyph d="M104 0v749h80v-330h368v330h80v-749h-80v352h-368v-352h-80z" glyph-name="H" horiz-adv-x="736" unicode="H"/>
<glyph d="M104 0v749h80v-749h-80z" glyph-name="I" horiz-adv-x="287" unicode="I"/>
<glyph d="M12 120l72 27q14 -45 45.5 -70.5t74.5 -25.5q118 0 118 167v531h80v-544q0 -110 -50.5 -166.5t-145.5 -56.5q-149 0 -194 138z" glyph-name="J" horiz-adv-x="506" unicode="J"/>
<glyph d="M104 0v749h80v-396h2l340 396h106l-284 -324l300 -425h-100l-252 367l-112 -128v-239h-80z" glyph-name="K" horiz-adv-x="649" unicode="K"/>
<glyph d="M104 0v749h80v-681h356v-68h-436z" glyph-name="L" horiz-adv-x="548" unicode="L"/>
<glyph d="M104 0v749h104l164 -403q16 -42 43.5 -114.5t28.5 -75.5h4q6 15 73 190l163 403h106v-749h-80v423q0 81 10 227h-4l-38 -100l-196 -494h-70l-196 494l-40 100h-4q12 -161 12 -227v-423h-80z" glyph-name="M" horiz-adv-x="893" unicode="M"/>
<glyph d="M104 0v749h92l276 -478l90 -158h6q-12 93 -12 212v424h80v-749h-92l-277 481l-89 154h-4q10 -100 10 -211v-424h-80z" glyph-name="N" horiz-adv-x="740" unicode="N"/>
<glyph d="M52 374q0 176 85 284.5t227 108.5q143 0 226.5 -108t83.5 -286q0 -180 -84.5 -285.5t-225.5 -105.5q-142 0 -227 106.5t-85 285.5zM134 374q0 -148 62 -235.5t168 -87.5q104 0 166 86t62 236q0 148 -60 237t-168 89q-106 0 -168 -88t-62 -237z" glyph-name="O" horiz-adv-x="726" unicode="O"/>
<glyph d="M104 0v749h282q109 0 172.5 -60t63.5 -159q0 -102 -65 -161t-171 -59h-202v-310h-80zM184 377h190q79 0 122.5 38.5t43.5 114.5q0 74 -43.5 112.5t-124.5 38.5h-188v-304z" glyph-name="P" horiz-adv-x="662" unicode="P"/>
<glyph d="M52 373q0 179 85.5 286.5t226.5 107.5q142 0 226 -108t84 -286q0 -176 -83 -283.5t-227 -107.5q-143 0 -227.5 107.5t-84.5 283.5zM134 373q0 -148 62.5 -235t167.5 -87t166.5 86.5t61.5 235.5q0 154 -62 240t-166 86q-105 0 -167.5 -87.5t-62.5 -238.5zM348 228l52 47 l274 -280l-52 -46z" glyph-name="Q" horiz-adv-x="726" unicode="Q"/>
<glyph d="M184 392h202q75 0 115.5 40t40.5 106q0 64 -42.5 103.5t-121.5 39.5h-194v-289zM104 0v749h292q110 0 169 -59.5t59 -146.5q0 -79 -40 -128t-88 -62q42 -22 61 -54t31 -89q13 -56 18.5 -76.5t20 -58.5t35.5 -75h-90q-17 32 -30.5 68.5t-19.5 60t-18 75.5q-13 56 -39.5 88 t-84.5 32h-196v-324h-80z" glyph-name="R" horiz-adv-x="676" unicode="R"/>
<glyph d="M40 141l74 26q67 -116 208 -116q78 0 127 38t49 104q0 33 -14 58.5t-44.5 44.5t-56.5 30t-71 26l-51 17t-47.5 18t-48 23t-38.5 27.5t-33.5 35.5t-19 43.5t-8.5 54.5q0 89 68 142.5t182 53.5q87 0 151.5 -40t92.5 -100l-68 -24q-59 96 -178 96q-78 0 -122 -35t-44 -93 q0 -26 12 -48.5t26.5 -36t47 -29t51 -22t60.5 -20.5q10 -3 15 -5q49 -16 82 -31t68 -40t52.5 -60.5t17.5 -82.5q0 -101 -70.5 -157.5t-189.5 -56.5q-102 0 -173 43t-107 116z" glyph-name="S" horiz-adv-x="621" unicode="S"/>
<glyph d="M12 681v68h536v-68h-228v-681h-80v681h-228z" glyph-name="T" horiz-adv-x="558" unicode="T"/>
<glyph d="M102 271v478h80v-476q0 -112 51.5 -167t132.5 -55q83 0 134.5 56.5t51.5 165.5v476h80v-478q0 -136 -69 -212.5t-197 -76.5q-125 0 -194.5 75t-69.5 214z" glyph-name="U" horiz-adv-x="733" unicode="U"/>
<glyph d="M-2 749h88l163 -515q8 -26 23 -75.5t24 -79.5h4q9 31 24 79.5t23 75.5l165 515h88l-252 -749h-98z" glyph-name="V" horiz-adv-x="597" unicode="V"/>
<glyph d="M11 749h88l106 -506q19 -107 26 -153h6q25 120 32 153l121 506h86l123 -506q14 -63 32 -153h4q1 10 27 153l107 506h88l-176 -749h-94l-121 500q-27 131 -30 147h-4q-5 -27 -17 -80t-15 -67l-119 -500h-94z" glyph-name="W" horiz-adv-x="867" unicode="W"/>
<glyph d="M-2 0l246 385l-234 364h100l110 -181q14 -23 40.5 -68t31.5 -54h4q13 23 38.5 64.5t35.5 57.5l110 181h100l-236 -364l248 -385h-98l-118 188q-14 23 -43 71.5t-37 61.5h-4q-41 -71 -79 -133l-117 -188h-98z" glyph-name="X" horiz-adv-x="589" unicode="X"/>
<glyph d="M-4 749h96l129 -229q45 -80 79 -141h2q15 27 46 81t34 60l128 229h96l-264 -441v-308h-80v308z" glyph-name="Y" horiz-adv-x="603" unicode="Y"/>
<glyph d="M46 59l422 622h-390v68h488v-60l-424 -621h434v-68h-530v59z" glyph-name="Z" horiz-adv-x="620" unicode="Z"/>
<glyph d="M150 -130v978h210v-64h-132v-851h132v-63h-210z" glyph-name="bracketleft" horiz-adv-x="454" unicode="["/>
<glyph d="M-13 796h80l274 -853h-80z" glyph-name="backslash" horiz-adv-x="326" unicode="\"/>
<glyph d="M94 -67h132v851h-132v64h210v-978h-210v63z" glyph-name="bracketright" horiz-adv-x="454" unicode="]"/>
<glyph d="M16 486l200 337h75l200 -337h-81l-121 213l-35 62l-1 -1l-36 -62l-120 -212h-81z" glyph-name="asciicircum" horiz-adv-x="507" unicode="^"/>
<glyph d="M6 -17h449v-63h-449v63z" glyph-name="underscore" horiz-adv-x="459" unicode="_"/>
<glyph d="M166 547l-130 293h111l82 -293h-63z" glyph-name="grave" horiz-adv-x="307" unicode="`"/>
<glyph d="M120 138q0 -38 32 -64.5t88 -26.5q71 0 121.5 46t50.5 117v75q-44 -11 -140 -26q-78 -14 -115 -43t-37 -78zM42 132q0 150 232 186q104 17 138 28v31q0 50 -36 83t-102 33q-48 0 -92.5 -22.5t-75.5 -60.5l-50 42q40 46 96.5 75t119.5 29q216 0 216 -211v-345h-74v88 q-16 -43 -66 -74.5t-118 -31.5q-89 0 -138.5 42t-49.5 108z" glyph-name="a" horiz-adv-x="563" unicode="a"/>
<glyph d="M86 0v777h76v-335q14 42 59 78t105 36q100 0 163 -76.5t63 -209.5q0 -74 -20.5 -131.5t-54 -90.5t-72 -49.5t-79.5 -16.5q-57 0 -101 33.5t-63 80.5v-96h-76zM160 270q0 -102 45.5 -162.5t110.5 -60.5q69 0 113.5 59.5t44.5 163.5q0 101 -44 161t-114 60 q-65 0 -110.5 -60t-45.5 -161z" glyph-name="b" horiz-adv-x="596" unicode="b"/>
<glyph d="M44 269q0 128 65 207.5t175 79.5q72 0 123.5 -41.5t68.5 -98.5l-66 -19q-15 40 -48.5 67t-77.5 27q-74 0 -118 -63t-44 -159q0 -102 46 -162t116 -60q47 0 85.5 30.5t54.5 70.5l66 -21q-21 -60 -76.5 -102.5t-129.5 -42.5q-107 0 -173.5 78t-66.5 209z" glyph-name="c" horiz-adv-x="514" unicode="c"/>
<glyph d="M44 270q0 133 64 209.5t162 76.5q59 0 102.5 -34t61.5 -78v333h76v-777h-74v97q-21 -50 -64.5 -82.5t-101.5 -32.5q-41 0 -79.5 16.5t-72 49t-54 90t-20.5 132.5zM122 270q0 -101 44 -162t114 -61q65 0 110.5 60.5t45.5 162.5q0 101 -45.5 161t-110.5 60 q-71 0 -114.5 -60.5t-43.5 -160.5z" glyph-name="d" horiz-adv-x="596" unicode="d"/>
<glyph d="M44 273q0 126 68 204.5t176 78.5q110 0 173 -76.5t63 -195.5q0 -14 -2 -40h-400q0 -81 45 -139t125 -58q52 0 92 24.5t62 65.5l66 -20q-25 -59 -81 -97t-139 -38q-112 0 -180 80t-68 211zM124 303h322q0 79 -43 133.5t-115 54.5q-73 0 -117.5 -56t-46.5 -132z" glyph-name="e" horiz-adv-x="566" unicode="e"/>
<glyph d="M24 473v65h92v83q0 79 40 117.5t110 38.5h70v-64h-60q-82 0 -82 -100v-75h128v-65h-128v-473h-78v473h-92z" glyph-name="f" horiz-adv-x="342" unicode="f"/>
<glyph d="M122 279q0 -95 42 -153.5t110 -58.5q69 0 109.5 56t40.5 157q0 98 -41.5 154.5t-106.5 56.5q-70 0 -112 -59.5t-42 -152.5zM44 278q0 125 62 201.5t160 76.5q62 0 101.5 -32t56.5 -74v88h76v-475q0 -153 -54.5 -227.5t-173.5 -74.5q-129 0 -200 98l54 35q62 -70 148 -70 q71 0 110.5 55.5t39.5 148.5v77q-21 -45 -60.5 -74t-95.5 -29q-102 0 -163 77.5t-61 198.5z" glyph-name="g" horiz-adv-x="583" unicode="g"/>
<glyph d="M86 0v777h76v-326h2q20 43 64.5 74t101.5 31q174 0 174 -208v-348h-76v335q0 156 -112 156q-62 0 -108 -51t-46 -121v-319h-76z" glyph-name="h" horiz-adv-x="579" unicode="h"/>
<glyph d="M88 659v101h98v-101h-98zM100 0v538h76v-538h-76z" glyph-name="i" horiz-adv-x="275" unicode="i"/>
<glyph d="M92 659v101h100v-101h-100zM-10 -163h24q90 0 90 124v577h76v-581q0 -91 -40 -138t-114 -47h-36v65z" glyph-name="j" horiz-adv-x="280" unicode="j"/>
<glyph d="M88 0v777h78v-509l234 270h102l-192 -215l214 -323h-94l-170 269l-94 -105v-164h-78z" glyph-name="k" horiz-adv-x="518" unicode="k"/>
<glyph d="M92 0v777h76v-777h-76z" glyph-name="l" horiz-adv-x="260" unicode="l"/>
<glyph d="M80 0v538h76v-81q14 37 53 68t99 31q59 0 90 -33.5t48 -86.5q5 13 16 30t31 39t53.5 36.5t73.5 14.5q156 0 156 -208v-348h-78v342q0 74 -20 111.5t-76 37.5q-58 0 -97 -48.5t-39 -122.5v-320h-76v343q0 148 -98 148q-61 0 -97.5 -46t-36.5 -120v-325h-78z" glyph-name="m" horiz-adv-x="850" unicode="m"/>
<glyph d="M80 0v538h76v-92h1q12 40 59 75t112 35q75 0 123.5 -47t48.5 -161v-348h-78v335q0 156 -112 156q-62 0 -107 -50t-45 -120v-321h-78z" glyph-name="n" horiz-adv-x="574" unicode="n"/>
<glyph d="M122 269q0 -102 47 -162t117 -60q69 0 116.5 60t47.5 162q0 104 -48 163t-116 59q-69 0 -116.5 -59t-47.5 -163zM44 269q0 123 63.5 205t178.5 82q114 0 178 -82t64 -205q0 -52 -13.5 -101t-41 -91.5t-76 -68.5t-111.5 -26q-62 0 -110.5 25.5t-76 68t-41.5 91.5t-14 102z " glyph-name="o" horiz-adv-x="572" unicode="o"/>
<glyph d="M162 270q0 -100 41 -161.5t113 -61.5q68 0 113 60t45 163q0 97 -42.5 159t-115.5 62q-68 0 -111 -62.5t-43 -158.5zM86 -235v773h74v-97q23 52 66.5 83.5t99.5 31.5q98 0 162 -78t64 -208q0 -139 -67 -213.5t-159 -74.5q-60 0 -102 31.5t-62 79.5v-328h-76z" glyph-name="p" horiz-adv-x="596" unicode="p"/>
<glyph d="M122 270q0 -102 44.5 -162.5t113.5 -60.5q70 0 112 61.5t42 161.5q0 98 -43 159.5t-111 61.5q-75 0 -116.5 -62t-41.5 -159zM44 270q0 131 63.5 208.5t162.5 77.5q55 0 98.5 -31t67.5 -84v97h74v-773h-76v328q-20 -48 -63 -79.5t-101 -31.5q-92 0 -159 74.5t-67 213.5z " glyph-name="q" horiz-adv-x="594" unicode="q"/>
<glyph d="M80 0v538h74v-78q16 36 53 66t95 30q43 0 76 -14v-70q-36 14 -76 14q-68 0 -106 -51t-38 -135v-300h-78z" glyph-name="r" horiz-adv-x="375" unicode="r"/>
<glyph d="M36 106l58 34q59 -93 160 -93q61 0 97.5 22t36.5 64q0 18 -9 32.5t-19.5 24t-37.5 21t-44.5 17t-57.5 18.5q-35 11 -60 22t-52 29.5t-41.5 45.5t-14.5 62q0 67 54 109t148 42q66 0 121 -35t79 -82l-52 -34q-21 35 -60.5 60.5t-87.5 25.5q-61 0 -92.5 -23.5t-31.5 -63.5 q0 -23 12 -41.5t36.5 -32t45 -21t54.5 -18.5q29 -9 51.5 -17t49.5 -22t45 -29.5t30 -39t12 -50.5q0 -64 -56.5 -107.5t-155.5 -43.5q-72 0 -128 32.5t-90 91.5z" glyph-name="s" horiz-adv-x="501" unicode="s"/>
<glyph d="M20 473v65h94v172h78v-172h142v-65h-142v-315q0 -50 19 -71t61 -21h62v-66h-72q-148 0 -148 151v322h-94z" glyph-name="t" horiz-adv-x="365" unicode="t"/>
<glyph d="M74 189v349h78v-333q0 -158 116 -158q71 0 108.5 55t37.5 130v306h76v-538h-74v87q-8 -33 -49.5 -69t-116.5 -36q-77 0 -126.5 52.5t-49.5 154.5z" glyph-name="u" horiz-adv-x="571" unicode="u"/>
<glyph d="M8 538h86l116 -337q8 -25 22 -70t20 -64h2q7 23 22 67t22 67l114 337h86l-198 -538h-94z" glyph-name="v" horiz-adv-x="506" unicode="v"/>
<glyph d="M8 538h86l79 -334q25 -115 29 -133h4q5 24 16 69t15 64l82 334h92l83 -338q4 -17 14 -59t16 -70h4q3 12 29 133l79 334h86l-148 -538h-97l-81 324q-27 122 -29 132h-4q-24 -113 -29 -132l-81 -324h-97z" glyph-name="w" horiz-adv-x="729" unicode="w"/>
<glyph d="M4 0l194 279l-184 259h92l94 -139q8 -13 22 -34.5t20 -29.5h4q6 11 20.5 33t20.5 31l93 139h92l-182 -259l194 -279h-92l-105 160q-26 37 -41 61h-4q-5 -9 -40 -61l-106 -160h-92z" glyph-name="x" horiz-adv-x="491" unicode="x"/>
<glyph d="M8 538h90l111 -315q25 -70 45 -136h4q15 49 44 136l106 315h88l-232 -628q-30 -80 -69.5 -112.5t-96.5 -32.5h-30v64h18q38 0 64.5 22t47.5 79l20 63z" glyph-name="y" horiz-adv-x="503" unicode="y"/>
<glyph d="M32 0v52l314 421h-286v65h386v-49l-316 -424h324v-65h-422z" glyph-name="z" horiz-adv-x="486" unicode="z"/>
<glyph d="M67 325v60h28q74 0 74 137v195q0 62 34 96.5t86 34.5h79v-64h-66q-24 0 -40 -20t-16 -57v-198q0 -64 -19.5 -97.5t-55.5 -56.5q75 -39 75 -141v-197q0 -42 16 -63t42 -21h64v-63h-79q-51 0 -85.5 32t-34.5 97v202q0 59 -21 91.5t-53 32.5h-28z" glyph-name="braceleft" horiz-adv-x="454" unicode="{"/>
<glyph d="M98 -169v1052h78v-1052h-78z" glyph-name="bar" horiz-adv-x="273" unicode="|"/>
<glyph d="M86 -67h64q26 0 42 21t16 63v197q0 102 75 141q-36 23 -55.5 56.5t-19.5 97.5v198q0 37 -15.5 57t-40.5 20h-66v64h79q52 0 86 -34.5t34 -96.5v-195q0 -137 74 -137h28v-60h-28q-33 0 -53.5 -33t-20.5 -91v-202q0 -65 -34.5 -97t-85.5 -32h-79v63z" glyph-name="braceright" horiz-adv-x="454" unicode="}"/>
<glyph d="M70 314q67 144 194 144q39 0 75.5 -20.5t59.5 -45t53 -45t58 -20.5q15 0 29 3.5t24 8.5t20 14.5t16 16t13.5 19t10.5 18t9 18.5t7 15l64 -32q-71 -145 -191 -145q-41 0 -78 20.5t-60 45t-52.5 45t-57.5 20.5q-76 0 -130 -113z" glyph-name="asciitilde" horiz-adv-x="773" unicode="~"/>
<glyph glyph-name="uni00A0" horiz-adv-x="250" unicode=" "/>
<glyph d="M114 -215l9 539h71l9 -539h-89zM95 427v115h126v-115h-126z" glyph-name="exclamdown" horiz-adv-x="316" unicode="¡"/>
<glyph d="M44 269q0 113 54.5 193.5t150.5 90.5v79h71v-79q61 -11 100.5 -49.5t54.5 -86.5l-64 -20q-17 39 -49 66.5t-75 27.5q-77 0 -121 -62.5t-44 -159.5q0 -100 45 -161t119 -61q45 0 82.5 30t54.5 71l66 -21q-19 -51 -62 -90t-107 -52v-83h-71v83q-91 9 -148 86t-57 198z" glyph-name="cent" horiz-adv-x="513" unicode="¢"/>
<glyph d="M39 338v68h111v174q0 89 56.5 138t151.5 49q65 0 113 -32.5t70 -76.5l-54 -34q-20 31 -54 53t-74 22q-59 0 -94.5 -32t-35.5 -94v-167h230v-68h-230v-123q0 -105 -49 -144q55 10 89 10q30 0 80 -15.5t84 -15.5q72 0 128 32l24 -64q-72 -36 -154 -36q-32 0 -93.5 16.5 t-92.5 16.5q-34 0 -80 -7t-75 -14l-28 -7l-22 58q55 14 82.5 59t27.5 107v127h-111z" glyph-name="sterling" horiz-adv-x="595" unicode="£"/>
<glyph d="M27 147l112 104q-42 52 -42 124q0 75 41 125l-111 103l53 50l108 -103q62 45 135 45q75 0 136 -45l106 102l53 -50l-109 -102q41 -49 41 -125q0 -72 -42 -124l110 -104l-52 -50l-108 103q-58 -45 -135 -45q-76 0 -135 45l-108 -102zM168 375q0 -63 43.5 -108t111.5 -45 t112 45t44 108q0 64 -44.5 108t-111.5 44t-111 -44.5t-44 -107.5z" glyph-name="currency" horiz-adv-x="645" unicode="¤"/>
<glyph d="M-4 749h96l124 -189q55 -86 84 -136h2q51 82 83 136l125 189h96l-225 -337h157v-58h-197v-117h197v-58h-197v-179h-80v179h-198v58h198v117h-198v58h158z" glyph-name="yen" horiz-adv-x="602" unicode="¥"/>
<glyph d="M98 471v412h78v-412h-78zM98 -169v411h78v-411h-78z" glyph-name="brokenbar" horiz-adv-x="273" unicode="¦"/>
<glyph d="M59 47l53 39q23 -33 63 -54t89 -21q122 0 122 75q0 28 -17.5 44t-59.5 36l-109 49q-65 29 -96 63t-31 83q0 35 18 66.5t36 48t45 36.5q-69 53 -69 110q0 65 51.5 105t151.5 40q66 0 119.5 -29t83.5 -75l-52 -39q-65 75 -153 75q-62 0 -91.5 -21.5t-29.5 -55.5 q0 -13 4 -24t14.5 -21.5t19.5 -18t27.5 -17t29 -15t34.5 -16t34 -15.5q41 -20 63.5 -32.5t49 -33t38 -45.5t11.5 -57q0 -78 -84 -148q42 -38 42 -93q0 -64 -49.5 -103.5t-151.5 -39.5q-70 0 -124.5 31t-81.5 73zM154 365q0 -37 20 -54.5t76 -43.5l112 -50q66 53 66 110 q0 32 -24.5 53.5t-81.5 49.5l-90 46q-38 -28 -58 -52.5t-20 -58.5z" glyph-name="section" horiz-adv-x="570" unicode="§"/>
<glyph d="M101 647v102h102v-102h-102zM284 647v102h101v-102h-101z" glyph-name="dieresis" horiz-adv-x="486" unicode="¨"/>
<glyph d="M257 379q0 108 55 174.5t148 66.5q107 0 160 -115l-59 -20q-41 73 -102 73t-96.5 -49t-35.5 -130q0 -83 35.5 -131.5t96.5 -48.5q38 0 67.5 23t43.5 57l62 -19q-18 -49 -63 -85.5t-110 -36.5q-90 0 -146 65.5t-56 175.5zM48 380q0 177 113.5 289t284.5 112 q173 0 286 -112.5t113 -288.5q0 -173 -112.5 -286.5t-286.5 -113.5q-171 0 -284.5 112t-113.5 288zM106 380q0 -150 94 -248t246 -98q150 0 245.5 96.5t95.5 249.5q0 151 -95.5 249t-245.5 98q-149 0 -244.5 -97t-95.5 -250z" glyph-name="copyright" horiz-adv-x="892" unicode="©"/>
<glyph d="M41 336v54h313v-54h-313zM93 557q0 -24 20.5 -41t56.5 -17q46 0 79.5 30t33.5 77v46q-16 -4 -46.5 -8.5t-52 -9t-44.5 -13.5t-35 -25t-12 -39zM32 553q0 37 17 63t48.5 39.5t60 21t68 14t57.5 11.5v18q0 32 -23.5 53.5t-66.5 21.5q-38 0 -69 -19.5t-44 -38.5l-40 33 q16 23 58.5 49t93.5 26q151 0 151 -147v-239h-58v48q-16 -26 -48 -43t-73 -17q-62 0 -97 29.5t-35 76.5z" glyph-name="ordfeminine" horiz-adv-x="395" unicode="ª"/>
<glyph d="M39 254l162 229l57 -38l-134 -191l133 -190l-56 -39zM218 254l162 222l55 -41l-132 -181l132 -182l-55 -40z" glyph-name="guillemotleft" horiz-adv-x="471" unicode="«"/>
<glyph d="M49 322v68h459v-264h-74v196h-385z" glyph-name="logicalnot" horiz-adv-x="556" unicode="¬"/>
<glyph d="M58 337v68h452v-68h-452z" glyph-name="uni00AD" unicode="­"/>
<glyph d="M305 149v457h177q66 0 101.5 -37t35.5 -92q0 -81 -70 -112q35 -23 48 -86q13 -62 48 -130h-75q-24 43 -41 123q-4 22 -8.5 34t-17.5 23.5t-33 11.5h-97v-192h-68zM373 397h98q37 0 58.5 20t21.5 55q0 31 -20.5 51.5t-59.5 20.5h-98v-147zM48 381q0 177 113.5 288.5 t284.5 111.5q173 0 286 -112t113 -288q0 -173 -112 -287t-287 -114q-171 0 -284.5 112t-113.5 289zM106 381q0 -151 94 -249t246 -98q150 0 245.5 98t95.5 249q0 152 -96 249t-245 97t-244.5 -96.5t-95.5 -249.5z" glyph-name="registered" horiz-adv-x="892" unicode="®"/>
<glyph d="M0 757v67h516v-67h-516z" glyph-name="macron" horiz-adv-x="515" unicode="¯"/>
<glyph d="M86 632q0 51 36 87.5t92 36.5q53 0 90 -35t37 -89t-37 -88.5t-90 -34.5q-54 0 -91 35t-37 88zM138 632q0 -33 21.5 -54t54.5 -21q31 0 52.5 21t21.5 54q0 31 -20.5 53t-53.5 22q-34 0 -55 -22.5t-21 -52.5z" glyph-name="degree" horiz-adv-x="427" unicode="°"/>
<glyph d="M46 411v68h200v179h76v-179h201v-68h-201v-176h-76v176h-200zM46 98v68h477v-68h-477z" glyph-name="plusminus" unicode="±"/>
<glyph d="M29 728q4 15 6 21.5t12.5 27.5t23.5 32.5t37.5 22.5t55.5 11q56 0 92 -32.5t36 -88.5q0 -63 -75 -138q-9 -9 -31.5 -30.5t-34 -33t-26 -30.5t-22.5 -36h189v-50h-260q0 51 29.5 93t118.5 127q53 49 53 98q0 34 -18.5 52.5t-51.5 18.5q-23 0 -39.5 -9t-26 -26.5 t-11.5 -23.5t-6 -20z" glyph-name="twosuperior" horiz-adv-x="329" unicode="²"/>
<glyph d="M21 488l48 19q32 -62 90 -62q36 0 60.5 21t24.5 62q0 37 -27 57.5t-66 20.5q-15 0 -39 -2v52q30 -2 37 -2q34 0 56 19.5t22 53.5q0 30 -19.5 49t-50.5 19q-50 0 -76 -65l-48 16q34 98 126 98q58 0 92.5 -32t34.5 -81q0 -66 -55 -97q72 -30 72 -106q0 -62 -40 -97.5 t-104 -35.5q-99 0 -138 93z" glyph-name="threesuperior" horiz-adv-x="329" unicode="³"/>
<glyph d="M73 665l113 175h101l-146 -175h-68z" glyph-name="acute" horiz-adv-x="340" unicode="´"/>
<glyph d="M86 -235v773h77v-333q0 -158 115 -158q72 0 109.5 55t37.5 130v306h77v-538h-74v87h-1q-14 -45 -57.5 -75t-105.5 -30q-67 0 -101 54v-271h-77z" glyph-name="mu" horiz-adv-x="583" unicode="µ"/>
<glyph d="M59 554q0 102 53.5 164.5t152.5 62.5h287v-854h-65v783h-105v-783h-65v404q-32 -10 -65 -10q-82 0 -137.5 61t-55.5 172z" glyph-name="paragraph" horiz-adv-x="642" unicode="¶"/>
<glyph d="M109 300v119h126v-119h-126z" glyph-name="periodcentered" horiz-adv-x="344" unicode="·"/>
<glyph d="M45 -169q42 -10 65 -10q69 0 69 43q0 44 -97 53l47 97h69l-29 -60q82 -21 82 -91q0 -44 -32.5 -71.5t-102.5 -27.5q-41 0 -71 10v57z" glyph-name="cedilla" horiz-adv-x="302" unicode="¸"/>
<glyph d="M55 727v47h24q44 0 59.5 12.5t15.5 37.5v19h52v-439h-59v323h-92z" glyph-name="onesuperior" horiz-adv-x="329" unicode="¹"/>
<glyph d="M90 646q0 -68 31 -107.5t76 -39.5t76.5 39.5t31.5 107.5q0 69 -31.5 108t-76.5 39t-76 -39t-31 -108zM29 646q0 85 44 142t124 57q79 0 124 -57t45 -142q0 -79 -42.5 -139t-126.5 -60q-57 0 -96.5 31t-55.5 74.5t-16 93.5zM41 336v54h313v-54h-313z" glyph-name="ordmasculine" horiz-adv-x="395" unicode="º"/>
<glyph d="M36 435l56 41l161 -222l-161 -222l-55 40l132 182zM214 65l133 189l-134 191l58 38l161 -229l-161 -229z" glyph-name="guillemotright" horiz-adv-x="470" unicode="»"/>
<glyph d="M85 672v59h29q49 0 66 13t17 40v25h63v-504h-72v367h-103zM553 123l222 338h61v-330h68v-62h-68v-112h-70v112h-213v54zM631 131h135v166v45l-26 -43zM159 -51l484 847h76l-482 -847h-78z" glyph-name="onequarter" horiz-adv-x="984" unicode="¼"/>
<glyph d="M85 672v59h29q49 0 66 13t17 40v25h63v-504h-72v367h-103zM578 323q4 16 7 25t15 33t27 38t43.5 26.5t64.5 12.5q65 0 106 -38t41 -103q0 -74 -76 -147q-68 -64 -96 -94t-42 -60h214v-61h-300q0 58 32 106t138 147q58 54 58 110q0 38 -20.5 58.5t-56.5 20.5 q-71 0 -92 -91zM156 -51l484 847h76l-482 -847h-78z" glyph-name="onehalf" horiz-adv-x="984" unicode="½"/>
<glyph d="M66 417l59 23q37 -70 101 -70q40 0 67 23t27 68q0 41 -29.5 64t-72.5 23q-24 0 -48 -2v63q18 -2 45 -2q37 0 61.5 21t24.5 59q0 33 -21.5 54t-55.5 21q-24 0 -42 -13t-26 -26.5t-17 -34.5l-60 20q39 115 147 115q67 0 106.5 -37.5t39.5 -94.5q0 -72 -60 -109 q79 -36 79 -121q0 -72 -45.5 -112t-119.5 -40q-114 0 -160 108zM563 123l222 338h61v-330h68v-62h-68v-112h-70v112h-213v54zM641 131h135v167v43l-25 -41zM235 -51l484 847h76l-482 -847h-78z" glyph-name="threequarters" horiz-adv-x="984" unicode="¾"/>
<glyph d="M74 -30q0 47 18.5 84t45 62t53 50.5t45 61t18.5 80.5v23h80v-28q0 -51 -18.5 -91t-44.5 -66t-52 -50t-44.5 -56.5t-18.5 -71.5q0 -61 33 -97t92 -36q100 0 149 119l70 -24q-26 -74 -83.5 -118.5t-134.5 -44.5q-94 0 -151 55t-57 148zM231 428v114h126v-114h-126z" glyph-name="questiondown" horiz-adv-x="564" unicode="¿"/>
<glyph d="M184 280h282l-88 252q-8 23 -25.5 73.5t-24.5 70.5h-6q-42 -123 -49 -144zM-4 0l280 749h98l280 -749h-88l-76 216h-330l-76 -216h-88zM164 1002h101l113 -175h-69z" glyph-name="Agrave" horiz-adv-x="650" unicode="À"/>
<glyph d="M184 280h282l-88 252q-8 23 -25.5 73.5t-24.5 70.5h-6q-42 -123 -49 -144zM-4 0l280 749h98l280 -749h-88l-76 216h-330l-76 -216h-88zM253 827l113 175h101l-146 -175h-68z" glyph-name="Aacute" horiz-adv-x="650" unicode="Á"/>
<glyph d="M184 280h282l-88 252q-8 23 -25.5 73.5t-24.5 70.5h-6q-42 -123 -49 -144zM-4 0l280 749h98l280 -749h-88l-76 216h-330l-76 -216h-88zM126 827l164 166h69l166 -166h-83l-117 122l-116 -122h-83z" glyph-name="Acircumflex" horiz-adv-x="650" unicode="Â"/>
<glyph d="M184 280h282l-88 252q-8 23 -25.5 73.5t-24.5 70.5h-6q-42 -123 -49 -144zM-4 0l280 749h98l280 -749h-88l-76 216h-330l-76 -216h-88zM103 885q46 90 131 90q37 0 85 -33t69 -33q50 0 84 64l47 -32q-50 -91 -129 -91q-38 0 -84.5 33.5t-70.5 33.5q-53 0 -85 -65z" glyph-name="Atilde" horiz-adv-x="650" unicode="Ã"/>
<glyph d="M184 280h282l-88 252q-8 23 -25.5 73.5t-24.5 70.5h-6q-42 -123 -49 -144zM-4 0l280 749h98l280 -749h-88l-76 216h-330l-76 -216h-88zM167 865v97h102v-97h-102zM378 865v97h101v-97h-101z" glyph-name="Adieresis" horiz-adv-x="650" unicode="Ä"/>
<glyph d="M184 280h282l-88 252q-8 23 -25.5 73.5t-24.5 70.5h-6q-42 -123 -49 -144zM-4 0l280 749h98l280 -749h-88l-76 216h-330l-76 -216h-88zM189 917q0 54 38.5 92t98.5 38t98.5 -38t38.5 -92q0 -55 -39 -93.5t-98 -38.5q-57 0 -97 38.5t-40 93.5zM245 917q0 -34 23 -57 t58 -23t57.5 22.5t22.5 57.5q0 33 -22 56t-58 23t-58.5 -23.5t-22.5 -55.5z" glyph-name="Aring" horiz-adv-x="650" unicode="Å"/>
<glyph d="M245 280h238v394h-9zM-4 0l437 749h473v-68h-344v-260h307v-67h-311v-286h357v-68h-432v216h-276l-122 -216h-89z" glyph-name="AE" horiz-adv-x="955" unicode="Æ"/>
<glyph d="M52 374q0 183 89 288t231 105q88 0 149.5 -48.5t92.5 -115.5l-68 -24q-67 120 -176 120q-108 0 -172 -88.5t-64 -236.5q0 -150 65 -236.5t171 -86.5q67 0 117 37.5t75 92.5l72 -23q-34 -73 -99 -124.5t-163 -51.5q-141 0 -230.5 104.5t-89.5 287.5zM258 -162 q56 -15 94 -15q29 0 55 13t26 36q0 25 -32.5 37t-83.5 10l23 90h70l-16 -58q49 -4 75.5 -25.5t26.5 -57.5q0 -40 -36.5 -68t-105.5 -28q-47 0 -96 15v51z" glyph-name="Ccedilla" horiz-adv-x="662" unicode="Ç"/>
<glyph d="M104 0v749h468v-68h-388v-260h350v-67h-350v-286h396v-68h-476zM190 1002h101l113 -175h-69z" glyph-name="Egrave" horiz-adv-x="620" unicode="È"/>
<glyph d="M104 0v749h468v-68h-388v-260h350v-67h-350v-286h396v-68h-476zM260 827l113 175h101l-146 -175h-68z" glyph-name="Eacute" horiz-adv-x="620" unicode="É"/>
<glyph d="M135 827l164 166h69l166 -166h-83l-117 122l-116 -122h-83zM104 0v749h468v-68h-388v-260h350v-67h-350v-286h396v-68h-476z" glyph-name="Ecircumflex" horiz-adv-x="620" unicode="Ê"/>
<glyph d="M104 0v749h468v-68h-388v-260h350v-67h-350v-286h396v-68h-476zM178 865v97h102v-97h-102zM389 865v97h101v-97h-101z" glyph-name="Edieresis" horiz-adv-x="620" unicode="Ë"/>
<glyph d="M104 0v749h80v-749h-80zM-17 1002h101l113 -175h-69z" glyph-name="Igrave" horiz-adv-x="287" unicode="Ì"/>
<glyph d="M104 0v749h80v-749h-80zM74 827l113 175h101l-146 -175h-68z" glyph-name="Iacute" horiz-adv-x="287" unicode="Í"/>
<glyph d="M104 0v749h80v-749h-80zM-56 827l164 166h69l166 -166h-83l-117 122l-116 -122h-83z" glyph-name="Icircumflex" horiz-adv-x="287" unicode="Î"/>
<glyph d="M104 0v749h80v-749h-80zM-12 865v97h102v-97h-102zM199 865v97h101v-97h-101z" glyph-name="Idieresis" horiz-adv-x="287" unicode="Ï"/>
<glyph d="M104 0v749h202q162 0 255 -95.5t93 -279.5q0 -175 -90 -274.5t-260 -99.5h-200zM184 68h108q130 0 205 73.5t75 232.5q0 161 -75 234t-203 73h-110v-613zM13 352v64h367v-64h-367z" glyph-name="Eth" horiz-adv-x="701" unicode="Ð"/>
<glyph d="M159 885q46 90 131 90q37 0 85 -33t69 -33q50 0 84 64l47 -32q-50 -91 -129 -91q-38 0 -84.5 33.5t-70.5 33.5q-53 0 -85 -65zM104 0v749h92l276 -478l90 -158h6q-12 93 -12 212v424h80v-749h-92l-277 481l-89 154h-4q10 -100 10 -211v-424h-80z" glyph-name="Ntilde" horiz-adv-x="740" unicode="Ñ"/>
<glyph d="M52 374q0 176 85 284.5t227 108.5q143 0 226.5 -108t83.5 -286q0 -180 -84.5 -285.5t-225.5 -105.5q-142 0 -227 106.5t-85 285.5zM134 374q0 -148 62 -235.5t168 -87.5q104 0 166 86t62 236q0 148 -60 237t-168 89q-106 0 -168 -88t-62 -237zM204 1007h101l113 -175h-69 z" glyph-name="Ograve" horiz-adv-x="726" unicode="Ò"/>
<glyph d="M52 374q0 176 85 284.5t227 108.5q143 0 226.5 -108t83.5 -286q0 -180 -84.5 -285.5t-225.5 -105.5q-142 0 -227 106.5t-85 285.5zM134 374q0 -148 62 -235.5t168 -87.5q104 0 166 86t62 236q0 148 -60 237t-168 89q-106 0 -168 -88t-62 -237zM296 832l113 175h101 l-146 -175h-68z" glyph-name="Oacute" horiz-adv-x="726" unicode="Ó"/>
<glyph d="M52 374q0 176 85 284.5t227 108.5q143 0 226.5 -108t83.5 -286q0 -180 -84.5 -285.5t-225.5 -105.5q-142 0 -227 106.5t-85 285.5zM134 374q0 -148 62 -235.5t168 -87.5q104 0 166 86t62 236q0 148 -60 237t-168 89q-106 0 -168 -88t-62 -237zM164 832l164 166h69 l166 -166h-83l-117 122l-116 -122h-83z" glyph-name="Ocircumflex" horiz-adv-x="726" unicode="Ô"/>
<glyph d="M152 885q46 90 131 90q37 0 85 -33t69 -33q50 0 84 64l47 -32q-50 -91 -129 -91q-38 0 -84.5 33.5t-70.5 33.5q-53 0 -85 -65zM52 374q0 176 85 284.5t227 108.5q143 0 226.5 -108t83.5 -286q0 -180 -84.5 -285.5t-225.5 -105.5q-142 0 -227 106.5t-85 285.5zM134 374 q0 -148 62 -235.5t168 -87.5q104 0 166 86t62 236q0 148 -60 237t-168 89q-106 0 -168 -88t-62 -237z" glyph-name="Otilde" horiz-adv-x="726" unicode="Õ"/>
<glyph d="M52 374q0 176 85 284.5t227 108.5q143 0 226.5 -108t83.5 -286q0 -180 -84.5 -285.5t-225.5 -105.5q-142 0 -227 106.5t-85 285.5zM134 374q0 -148 62 -235.5t168 -87.5q104 0 166 86t62 236q0 148 -60 237t-168 89q-106 0 -168 -88t-62 -237zM206 865v97h102v-97h-102z M417 865v97h101v-97h-101z" glyph-name="Odieresis" horiz-adv-x="726" unicode="Ö"/>
<glyph d="M46 191l192 180l-192 181l48 47l190 -184l192 184l47 -46l-191 -182l191 -181l-48 -46l-191 183l-190 -183z" glyph-name="multiply" unicode="×"/>
<glyph d="M52 374q0 176 85 284.5t227 108.5q87 0 155 -42l43 84h75l-66 -127q104 -109 104 -309q0 -180 -85 -285.5t-226 -105.5q-75 0 -139 33l-44 -86h-75l64 124q-118 105 -118 321zM533 609l-274 -530q47 -28 105 -28q105 0 167 86t62 236q0 148 -60 236zM485 660 q-51 39 -121 39q-106 0 -168 -88t-62 -237q0 -163 73 -250z" glyph-name="Oslash" horiz-adv-x="727" unicode="Ø"/>
<glyph d="M102 271v478h80v-476q0 -112 51.5 -167t132.5 -55q83 0 134.5 56.5t51.5 165.5v476h80v-478q0 -136 -69 -212.5t-197 -76.5q-125 0 -194.5 75t-69.5 214zM216 1007h101l113 -175h-69z" glyph-name="Ugrave" horiz-adv-x="733" unicode="Ù"/>
<glyph d="M102 271v478h80v-476q0 -112 51.5 -167t132.5 -55q83 0 134.5 56.5t51.5 165.5v476h80v-478q0 -136 -69 -212.5t-197 -76.5q-125 0 -194.5 75t-69.5 214zM295 832l113 175h101l-146 -175h-68z" glyph-name="Uacute" horiz-adv-x="733" unicode="Ú"/>
<glyph d="M102 271v478h80v-476q0 -112 51.5 -167t132.5 -55q83 0 134.5 56.5t51.5 165.5v476h80v-478q0 -136 -69 -212.5t-197 -76.5q-125 0 -194.5 75t-69.5 214zM170 832l164 166h69l166 -166h-83l-117 122l-116 -122h-83z" glyph-name="Ucircumflex" horiz-adv-x="733" unicode="Û"/>
<glyph d="M102 271v478h80v-476q0 -112 51.5 -167t132.5 -55q83 0 134.5 56.5t51.5 165.5v476h80v-478q0 -136 -69 -212.5t-197 -76.5q-125 0 -194.5 75t-69.5 214zM213 865v97h102v-97h-102zM424 865v97h101v-97h-101z" glyph-name="Udieresis" horiz-adv-x="733" unicode="Ü"/>
<glyph d="M-4 749h96l129 -229q45 -80 79 -141h2q15 27 46 81t34 60l128 229h96l-264 -441v-308h-80v308zM226 832l113 175h101l-146 -175h-68z" glyph-name="Yacute" horiz-adv-x="603" unicode="Ý"/>
<glyph d="M104 0v749h80v-125h122q134 0 199 -64.5t65 -170.5q0 -120 -75 -179t-198 -59h-113v-151h-80zM184 219h105q198 0 198 170q0 168 -188 168h-115v-338z" glyph-name="Thorn" horiz-adv-x="612" unicode="Þ"/>
<glyph d="M104 0v563q0 97 64 150.5t160 53.5q101 0 163.5 -55t62.5 -146q0 -63 -26 -105t-64 -63v-2q63 -18 107.5 -68t44.5 -135q0 -94 -59.5 -152.5t-161.5 -58.5q-75 0 -143 22l5 70q60 -23 135 -23q59 0 100.5 39.5t41.5 102.5q0 79 -47 120t-120 41h-65v67h57q50 0 81.5 39.5 t31.5 101.5q0 59 -38.5 98t-104.5 39q-67 0 -106 -37.5t-39 -103.5v-558h-80z" glyph-name="germandbls" horiz-adv-x="666" unicode="ß"/>
<glyph d="M120 138q0 -38 32 -64.5t88 -26.5q71 0 121.5 46t50.5 117v75q-44 -11 -140 -26q-78 -14 -115 -43t-37 -78zM42 132q0 150 232 186q104 17 138 28v31q0 50 -36 83t-102 33q-48 0 -92.5 -22.5t-75.5 -60.5l-50 42q40 46 96.5 75t119.5 29q216 0 216 -211v-345h-74v88 q-16 -43 -66 -74.5t-118 -31.5q-89 0 -138.5 42t-49.5 108zM135 808h101l113 -175h-69z" glyph-name="agrave" horiz-adv-x="563" unicode="à"/>
<glyph d="M120 138q0 -38 32 -64.5t88 -26.5q71 0 121.5 46t50.5 117v75q-44 -11 -140 -26q-78 -14 -115 -43t-37 -78zM42 132q0 150 232 186q104 17 138 28v31q0 50 -36 83t-102 33q-48 0 -92.5 -22.5t-75.5 -60.5l-50 42q40 46 96.5 75t119.5 29q216 0 216 -211v-345h-74v88 q-16 -43 -66 -74.5t-118 -31.5q-89 0 -138.5 42t-49.5 108zM191 638l113 175h101l-146 -175h-68z" glyph-name="aacute" horiz-adv-x="563" unicode="á"/>
<glyph d="M120 138q0 -38 32 -64.5t88 -26.5q71 0 121.5 46t50.5 117v75q-44 -11 -140 -26q-78 -14 -115 -43t-37 -78zM42 132q0 150 232 186q104 17 138 28v31q0 50 -36 83t-102 33q-48 0 -92.5 -22.5t-75.5 -60.5l-50 42q40 46 96.5 75t119.5 29q216 0 216 -211v-345h-74v88 q-16 -43 -66 -74.5t-118 -31.5q-89 0 -138.5 42t-49.5 108zM71 638l164 166h69l166 -166h-83l-117 122l-116 -122h-83z" glyph-name="acircumflex" horiz-adv-x="563" unicode="â"/>
<glyph d="M120 138q0 -38 32 -64.5t88 -26.5q71 0 121.5 46t50.5 117v75q-44 -11 -140 -26q-78 -14 -115 -43t-37 -78zM42 132q0 150 232 186q104 17 138 28v31q0 50 -36 83t-102 33q-48 0 -92.5 -22.5t-75.5 -60.5l-50 42q40 46 96.5 75t119.5 29q216 0 216 -211v-345h-74v88 q-16 -43 -66 -74.5t-118 -31.5q-89 0 -138.5 42t-49.5 108zM66 686q46 90 131 90q37 0 85 -33t69 -33q50 0 84 64l47 -32q-50 -91 -129 -91q-38 0 -84.5 33.5t-70.5 33.5q-53 0 -85 -65z" glyph-name="atilde" horiz-adv-x="563" unicode="ã"/>
<glyph d="M120 138q0 -38 32 -64.5t88 -26.5q71 0 121.5 46t50.5 117v75q-44 -11 -140 -26q-78 -14 -115 -43t-37 -78zM42 132q0 150 232 186q104 17 138 28v31q0 50 -36 83t-102 33q-48 0 -92.5 -22.5t-75.5 -60.5l-50 42q40 46 96.5 75t119.5 29q216 0 216 -211v-345h-74v88 q-16 -43 -66 -74.5t-118 -31.5q-89 0 -138.5 42t-49.5 108zM114 672v97h102v-97h-102zM325 672v97h101v-97h-101z" glyph-name="adieresis" horiz-adv-x="563" unicode="ä"/>
<glyph d="M120 138q0 -38 32 -64.5t88 -26.5q71 0 121.5 46t50.5 117v75q-44 -11 -140 -26q-78 -14 -115 -43t-37 -78zM42 132q0 150 232 186q104 17 138 28v31q0 50 -36 83t-102 33q-48 0 -92.5 -22.5t-75.5 -60.5l-50 42q40 46 96.5 75t119.5 29q216 0 216 -211v-345h-74v88 q-16 -43 -66 -74.5t-118 -31.5q-89 0 -138.5 42t-49.5 108zM133 747q0 54 38.5 92t98.5 38t98.5 -38t38.5 -92q0 -55 -39 -93.5t-98 -38.5q-57 0 -97 38.5t-40 93.5zM189 747q0 -34 23 -57t58 -23t57.5 22.5t22.5 57.5q0 33 -22 56t-58 23t-58.5 -23.5t-22.5 -55.5z" glyph-name="aring" horiz-adv-x="563" unicode="å"/>
<glyph d="M42 133q0 150 231 185q120 21 139 28q0 4 -0.5 16t-0.5 15q0 47 -34.5 81.5t-97.5 34.5q-104 0 -174 -83l-50 42q40 47 98 75.5t126 28.5q139 0 184 -115q27 53 76 84t112 31q105 0 168 -77t63 -195v-40h-392v-21q7 -71 48.5 -123.5t113.5 -52.5q53 0 92.5 26t59.5 64 l66 -20q-28 -61 -83 -98t-136 -37q-71 0 -123 37.5t-81 101.5q-69 -139 -217 -139q-87 0 -137.5 41t-50.5 110zM120 138q0 -39 31.5 -65t86.5 -26q72 0 122.5 46t50.5 118v74q-36 -9 -135 -25q-156 -25 -156 -122zM490 303h314q0 79 -43 133.5t-110 54.5q-66 0 -107.5 -49.5 t-51.5 -121.5z" glyph-name="ae" horiz-adv-x="924" unicode="æ"/>
<glyph d="M44 269q0 128 65 207.5t175 79.5q72 0 123.5 -41.5t68.5 -98.5l-66 -19q-15 40 -48.5 67t-77.5 27q-74 0 -118 -63t-44 -159q0 -102 46 -162t116 -60q47 0 85.5 30.5t54.5 70.5l66 -21q-21 -60 -76.5 -102.5t-129.5 -42.5q-107 0 -173.5 78t-66.5 209zM157 -163 q56 -15 94 -15q29 0 55 13t26 36q0 25 -32.5 37t-83.5 10l23 90h70l-16 -58q49 -4 75.5 -25.5t26.5 -57.5q0 -40 -36.5 -68t-105.5 -28q-47 0 -96 15v51z" glyph-name="ccedilla" horiz-adv-x="514" unicode="ç"/>
<glyph d="M44 273q0 126 68 204.5t176 78.5q110 0 173 -76.5t63 -195.5q0 -14 -2 -40h-400q0 -81 45 -139t125 -58q52 0 92 24.5t62 65.5l66 -20q-25 -59 -81 -97t-139 -38q-112 0 -180 80t-68 211zM124 303h322q0 79 -43 133.5t-115 54.5q-73 0 -117.5 -56t-46.5 -132zM143 813 h101l113 -175h-69z" glyph-name="egrave" horiz-adv-x="566" unicode="è"/>
<glyph d="M44 273q0 126 68 204.5t176 78.5q110 0 173 -76.5t63 -195.5q0 -14 -2 -40h-400q0 -81 45 -139t125 -58q52 0 92 24.5t62 65.5l66 -20q-25 -59 -81 -97t-139 -38q-112 0 -180 80t-68 211zM124 303h322q0 79 -43 133.5t-115 54.5q-73 0 -117.5 -56t-46.5 -132zM197 638 l113 175h101l-146 -175h-68z" glyph-name="eacute" horiz-adv-x="566" unicode="é"/>
<glyph d="M44 273q0 126 68 204.5t176 78.5q110 0 173 -76.5t63 -195.5q0 -14 -2 -40h-400q0 -81 45 -139t125 -58q52 0 92 24.5t62 65.5l66 -20q-25 -59 -81 -97t-139 -38q-112 0 -180 80t-68 211zM124 303h322q0 79 -43 133.5t-115 54.5q-73 0 -117.5 -56t-46.5 -132zM89 638 l164 166h69l166 -166h-83l-117 122l-116 -122h-83z" glyph-name="ecircumflex" horiz-adv-x="566" unicode="ê"/>
<glyph d="M129 672v97h102v-97h-102zM340 672v97h101v-97h-101zM44 273q0 126 68 204.5t176 78.5q110 0 173 -76.5t63 -195.5q0 -14 -2 -40h-400q0 -81 45 -139t125 -58q52 0 92 24.5t62 65.5l66 -20q-25 -59 -81 -97t-139 -38q-112 0 -180 80t-68 211zM124 303h322q0 79 -43 133.5 t-115 54.5q-73 0 -117.5 -56t-46.5 -132z" glyph-name="edieresis" horiz-adv-x="566" unicode="ë"/>
<glyph d="M88 0v538h77v-538h-77zM-28 813h101l113 -175h-69z" glyph-name="igrave" horiz-adv-x="253" unicode="ì"/>
<glyph d="M88 0v538h77v-538h-77zM58 638l113 175h101l-146 -175h-68z" glyph-name="iacute" horiz-adv-x="253" unicode="í"/>
<glyph d="M-73 638l164 166h69l166 -166h-83l-117 122l-116 -122h-83zM88 0v538h77v-538h-77z" glyph-name="icircumflex" horiz-adv-x="253" unicode="î"/>
<glyph d="M-30 672v97h102v-97h-102zM181 672v97h101v-97h-101zM88 0v538h77v-538h-77z" glyph-name="idieresis" horiz-adv-x="253" unicode="ï"/>
<glyph d="M158 593l283 205l44 -50l-282 -204zM44 242q0 121 66 191.5t172 70.5q56 0 97.5 -26t59.5 -61q-55 263 -287 300l26 61q75 -12 135.5 -44.5t110 -90.5t76.5 -153t27 -221t-64 -206.5t-180 -80.5q-110 0 -174.5 74.5t-64.5 185.5zM122 245q0 -87 44 -142.5t119 -55.5 q72 0 115 54t43 145q0 87 -43.5 139.5t-113.5 52.5q-71 0 -117.5 -51t-46.5 -142z" glyph-name="eth" horiz-adv-x="571" unicode="ð"/>
<glyph d="M75 686q46 90 131 90q37 0 85 -33t69 -33q50 0 84 64l47 -32q-50 -91 -129 -91q-38 0 -84.5 33.5t-70.5 33.5q-53 0 -85 -65zM80 0v538h76v-92h1q12 40 59 75t112 35q75 0 123.5 -47t48.5 -161v-348h-78v335q0 156 -112 156q-62 0 -107 -50t-45 -120v-321h-78z" glyph-name="ntilde" horiz-adv-x="574" unicode="ñ"/>
<glyph d="M122 269q0 -102 47 -162t117 -60q69 0 116.5 60t47.5 162q0 104 -48 163t-116 59q-69 0 -116.5 -59t-47.5 -163zM44 269q0 123 63.5 205t178.5 82q114 0 178 -82t64 -205q0 -52 -13.5 -101t-41 -91.5t-76 -68.5t-111.5 -26q-62 0 -110.5 25.5t-76 68t-41.5 91.5t-14 102z M143 813h101l113 -175h-69z" glyph-name="ograve" horiz-adv-x="572" unicode="ò"/>
<glyph d="M122 269q0 -102 47 -162t117 -60q69 0 116.5 60t47.5 162q0 104 -48 163t-116 59q-69 0 -116.5 -59t-47.5 -163zM44 269q0 123 63.5 205t178.5 82q114 0 178 -82t64 -205q0 -52 -13.5 -101t-41 -91.5t-76 -68.5t-111.5 -26q-62 0 -110.5 25.5t-76 68t-41.5 91.5t-14 102z M212 638l113 175h101l-146 -175h-68z" glyph-name="oacute" horiz-adv-x="572" unicode="ó"/>
<glyph d="M87 638l164 166h69l166 -166h-83l-117 122l-116 -122h-83zM122 269q0 -102 47 -162t117 -60q69 0 116.5 60t47.5 162q0 104 -48 163t-116 59q-69 0 -116.5 -59t-47.5 -163zM44 269q0 123 63.5 205t178.5 82q114 0 178 -82t64 -205q0 -52 -13.5 -101t-41 -91.5t-76 -68.5 t-111.5 -26q-62 0 -110.5 25.5t-76 68t-41.5 91.5t-14 102z" glyph-name="ocircumflex" horiz-adv-x="572" unicode="ô"/>
<glyph d="M70 686q46 90 131 90q37 0 85 -33t69 -33q50 0 84 64l47 -32q-50 -91 -129 -91q-38 0 -84.5 33.5t-70.5 33.5q-53 0 -85 -65zM122 269q0 -102 47 -162t117 -60q69 0 116.5 60t47.5 162q0 104 -48 163t-116 59q-69 0 -116.5 -59t-47.5 -163zM44 269q0 123 63.5 205 t178.5 82q114 0 178 -82t64 -205q0 -52 -13.5 -101t-41 -91.5t-76 -68.5t-111.5 -26q-62 0 -110.5 25.5t-76 68t-41.5 91.5t-14 102z" glyph-name="otilde" horiz-adv-x="572" unicode="õ"/>
<glyph d="M130 672v97h102v-97h-102zM341 672v97h101v-97h-101zM122 269q0 -102 47 -162t117 -60q69 0 116.5 60t47.5 162q0 104 -48 163t-116 59q-69 0 -116.5 -59t-47.5 -163zM44 269q0 123 63.5 205t178.5 82q114 0 178 -82t64 -205q0 -52 -13.5 -101t-41 -91.5t-76 -68.5 t-111.5 -26q-62 0 -110.5 25.5t-76 68t-41.5 91.5t-14 102z" glyph-name="odieresis" horiz-adv-x="572" unicode="ö"/>
<glyph d="M228 505v108h112v-108h-112zM28 337v68h512v-68h-512zM228 128v109h112v-109h-112z" glyph-name="divide" unicode="÷"/>
<glyph d="M44 269q0 123 63.5 205t178.5 82q64 0 111 -27l37 72h65l-55 -107q83 -79 83 -225q0 -52 -13.5 -101t-41 -91.5t-75.5 -68.5t-111 -26q-56 0 -103 22l-34 -66h-65l50 98q-44 39 -67 101.5t-23 131.5zM408 424l-193 -358q33 -19 71 -19q69 0 116 60t47 162q0 95 -41 155z M365 466q-36 25 -79 25q-69 0 -116.5 -59t-47.5 -163q0 -102 48 -164z" glyph-name="oslash" horiz-adv-x="571" unicode="ø"/>
<glyph d="M74 189v349h78v-333q0 -158 116 -158q71 0 108.5 55t37.5 130v306h76v-538h-74v87q-8 -33 -49.5 -69t-116.5 -36q-77 0 -126.5 52.5t-49.5 154.5zM139 813h101l113 -175h-69z" glyph-name="ugrave" horiz-adv-x="571" unicode="ù"/>
<glyph d="M74 189v349h78v-333q0 -158 116 -158q71 0 108.5 55t37.5 130v306h76v-538h-74v87q-8 -33 -49.5 -69t-116.5 -36q-77 0 -126.5 52.5t-49.5 154.5zM214 638l113 175h101l-146 -175h-68z" glyph-name="uacute" horiz-adv-x="571" unicode="ú"/>
<glyph d="M74 189v349h78v-333q0 -158 116 -158q71 0 108.5 55t37.5 130v306h76v-538h-74v87q-8 -33 -49.5 -69t-116.5 -36q-77 0 -126.5 52.5t-49.5 154.5zM95 638l164 166h69l166 -166h-83l-117 122l-116 -122h-83z" glyph-name="ucircumflex" horiz-adv-x="571" unicode="û"/>
<glyph d="M135 672v97h102v-97h-102zM346 672v97h101v-97h-101zM74 189v349h78v-333q0 -158 116 -158q71 0 108.5 55t37.5 130v306h76v-538h-74v87q-8 -33 -49.5 -69t-116.5 -36q-77 0 -126.5 52.5t-49.5 154.5z" glyph-name="udieresis" horiz-adv-x="571" unicode="ü"/>
<glyph d="M8 538h90l111 -315q25 -70 45 -136h4q15 49 44 136l106 315h88l-232 -628q-30 -80 -69.5 -112.5t-96.5 -32.5h-30v64h18q38 0 64.5 22t47.5 79l20 63zM165 638l113 175h101l-146 -175h-68z" glyph-name="yacute" horiz-adv-x="503" unicode="ý"/>
<glyph d="M164 269q0 -100 44.5 -161t107.5 -61q74 0 117.5 59.5t43.5 162.5t-43 162.5t-117 59.5q-61 0 -107 -61t-46 -161zM89 -235v1012h77v-337q16 51 64.5 83.5t95.5 32.5q105 0 167 -77t62 -210q0 -142 -68 -214.5t-162 -72.5q-56 0 -99 34.5t-60 78.5v-330h-77z" glyph-name="thorn" horiz-adv-x="599" unicode="þ"/>
<glyph d="M88 0v538h77v-538h-77z" glyph-name="dotlessi" horiz-adv-x="253" unicode="ı"/>
<glyph d="M74 649q46 90 131 90q37 0 85 -33t69 -33q50 0 84 64l47 -32q-50 -91 -129 -91q-38 0 -84.5 33.5t-70.5 33.5q-53 0 -85 -65z" glyph-name="uni1FC0" horiz-adv-x="645" unicode="῀"/>
<glyph d="M176 979h101l113 -175h-69z" glyph-name="uniE00C" horiz-adv-x="653" unicode=""/>
<glyph d="M263 804l113 175h101l-146 -175h-68z" glyph-name="uniE00D" horiz-adv-x="653" unicode=""/>
<glyph d="M119 804l164 166h69l166 -166h-83l-117 122l-116 -122h-83z" glyph-name="uniE00E" horiz-adv-x="653" unicode=""/>
<glyph d="M170 826v97h102v-97h-102zM381 826v97h101v-97h-101z" glyph-name="uniE010" horiz-adv-x="653" unicode=""/>
<glyph d="M186 844q0 54 38.5 92t98.5 38t98.5 -38t38.5 -92q0 -55 -39 -93.5t-98 -38.5q-57 0 -97 38.5t-40 93.5zM242 844q0 -34 23 -57t58 -23t57.5 22.5t22.5 57.5q0 33 -22 56t-58 23t-58.5 -23.5t-22.5 -55.5z" glyph-name="uniE011" horiz-adv-x="672" unicode=""/>
<glyph d="M282 -162q56 -15 94 -15q29 0 55 13t26 36q0 25 -32.5 37t-83.5 10l23 90h70l-16 -58q49 -4 75.5 -25.5t26.5 -57.5q0 -40 -36.5 -68t-105.5 -28q-47 0 -96 15v51z" glyph-name="uniE012" horiz-adv-x="653" unicode=""/>
<glyph d="M23 352v64h367v-64h-367z" glyph-name="uniE030" horiz-adv-x="714" unicode=""/>
</font>
</defs>
</svg>
