<?xml version="1.0" encoding="UTF-8"?>
<!DOCTYPE svg  PUBLIC '-//W3C//DTD SVG 1.1//EN'  'http://www.w3.org/Graphics/SVG/1.1/DTD/svg11.dtd'>
<svg version="1.1" xmlns="http://www.w3.org/2000/svg">
<defs>
<font id="GothicA1-Bold" horiz-adv-x="600">
<font-face font-family="Gothic A1" font-weight="700" ascent="817" bbox="-87 -242 1011 1115" cap-height="791" descent="-207" panose-1="0 0 0 0 0 0 0 0 0 0" underline-position="-121" underline-thickness="45" unicode-range="U+0020-E030" units-per-em="1024" x-height="577"/>
<missing-glyph/>
<glyph glyph-name="space" horiz-adv-x="250" unicode=" "/>
<glyph d="M83 -5v152h169v-152h-169zM229 224h-123l-10 572h141z" glyph-name="exclam" horiz-adv-x="334" unicode="!"/>
<glyph d="M312 556l97 323h145l-139 -323h-103zM72 556l96 323h146l-140 -323h-102z" glyph-name="quotedbl" horiz-adv-x="596" unicode='"'/>
<glyph d="M54 198v98h131l24 179h-122v97h134l27 197h116l-26 -197h164l26 197h117l-26 -197h118v-97h-131l-23 -179h121v-98h-134l-25 -196h-118l26 196h-164l-26 -196h-117l26 196h-118zM302 296h164l24 179h-165z" glyph-name="numbersign" horiz-adv-x="789" unicode="#"/>
<glyph d="M48 165l96 46q30 -48 76.5 -75t100.5 -27q51 0 86 28t35 80q0 27 -10 46.5t-34.5 35.5t-47.5 26.5t-67.5 29.5t-75.5 34q-134 65 -134 194q0 66 46.5 125.5t137.5 75.5v87h120v-89q58 -6 110.5 -48.5t73.5 -90.5l-98 -47q-57 85 -146 85q-51 0 -82.5 -28t-31.5 -71 q0 -17 4 -31t15 -25.5t21.5 -20t32.5 -19t37 -17t46.5 -19.5t51.5 -21q163 -69 163 -201q0 -90 -54.5 -148.5t-142.5 -74.5v-82h-120v84q-61 6 -121 51.5t-88 106.5z" glyph-name="dollar" horiz-adv-x="627" unicode="$"/>
<glyph d="M580 182q0 86 60 143.5t156 57.5q95 0 155 -57t60 -144q0 -89 -61 -144.5t-154 -55.5q-95 0 -155.5 56.5t-60.5 143.5zM700 182q0 -49 28.5 -76.5t67.5 -27.5q40 0 67.5 28t27.5 76t-27 76t-68 28t-68.5 -28t-27.5 -76zM67 609q0 86 59.5 143t155.5 57q95 0 155 -56.5 t60 -143.5q0 -88 -60.5 -144.5t-154.5 -56.5q-95 0 -155 57t-60 144zM187 609q0 -49 28 -76.5t67 -27.5q40 0 67.5 28.5t27.5 75.5q0 48 -27 76t-68 28t-68 -28t-27 -76zM195 -5l557 801h132l-559 -801h-130z" glyph-name="percent" horiz-adv-x="1077" unicode="%"/>
<glyph d="M180 211q0 -56 36.5 -88.5t94.5 -32.5q74 0 137 66l-168 220q-100 -76 -100 -165zM50 209q0 148 168 257q-48 64 -60 94q-10 27 -10 55q0 79 57 127.5t153 48.5q83 0 140.5 -42t84.5 -105l-95 -41q-47 81 -119 81q-42 0 -66 -20t-24 -53q0 -17 12 -42t42.5 -68.5 t57.5 -79t80 -104.5q27 -35 41 -53q23 56 35 127l116 -20q-18 -116 -72 -209l128 -162h-153l-48 62q-87 -81 -209 -81q-123 0 -191 66t-68 162z" glyph-name="ampersand" horiz-adv-x="728" unicode="&amp;"/>
<glyph d="M89 556l96 323h146l-139 -323h-103z" glyph-name="quotesingle" horiz-adv-x="371" unicode="'"/>
<glyph d="M135 381q0 292 183 535l93 -53q-66 -107 -89 -161q-60 -141 -60 -321q0 -154 37.5 -261.5t111.5 -221.5l-93 -54q-88 119 -135.5 247.5t-47.5 289.5z" glyph-name="parenleft" horiz-adv-x="476" unicode="("/>
<glyph d="M66 -102q78 118 113.5 229.5t35.5 252.5q0 85 -11.5 156.5t-35.5 131.5t-45.5 100t-56.5 95l93 53q83 -112 133 -239.5t50 -296.5q0 -164 -48 -291.5t-135 -244.5z" glyph-name="parenright" horiz-adv-x="476" unicode=")"/>
<glyph d="M19 432l44 104l185 -72l-7 193h117l-6 -193l184 72l44 -104l-204 -62l156 -167l-97 -72l-135 183l-136 -183l-96 72l156 167z" glyph-name="asterisk" unicode="*"/>
<glyph d="M29 334v112h207v210h126v-210h209v-112h-209v-218h-126v218h-207z" glyph-name="plus" unicode="+"/>
<glyph d="M45 -169l96 324h146l-139 -324h-103z" glyph-name="comma" horiz-adv-x="379" unicode=","/>
<glyph d="M52 334v112h496v-112h-496z" glyph-name="hyphen" unicode="-"/>
<glyph d="M106 0v154h168v-154h-168z" glyph-name="period" horiz-adv-x="379" unicode="."/>
<glyph d="M-16 -58l305 900h133l-305 -900h-133z" glyph-name="slash" horiz-adv-x="405" unicode="/"/>
<glyph d="M176 395q0 -305 125 -305q35 0 59.5 25.5t38 70t19.5 96t6 113.5q0 63 -6 115.5t-20 96.5t-39 69t-59 25q-124 0 -124 -306zM40 395q0 117 23.5 202t63.5 129t82.5 63.5t90.5 19.5q125 0 192.5 -109t67.5 -305q0 -190 -66.5 -302t-192.5 -112q-46 0 -88.5 19t-83 62.5 t-65 129t-24.5 203.5z" glyph-name="zero" unicode="0"/>
<glyph d="M86 558v100h36q163 0 163 120v20h114v-807h-135v567h-178z" glyph-name="one" unicode="1"/>
<glyph d="M45 596q23 99 86 156t165 57q107 0 175 -61.5t68 -166.5q0 -68 -31 -123.5t-90 -111.5q-11 -11 -57 -56t-62.5 -62.5t-43 -52t-42.5 -67.5h324v-108h-484q0 47 15.5 94.5t36 82.5t59 79.5t64 69.5t71.5 69q11 10 16 15q88 84 88 174q0 55 -30 86t-79 31q-105 0 -137 -138 z" glyph-name="two" unicode="2"/>
<glyph d="M30 160l106 39q47 -109 152 -109q57 0 96 35.5t39 100.5q0 59 -43 96t-109 37q-36 0 -72 -4v108q26 -2 68 -2q53 0 90.5 33t37.5 91q0 51 -32 83.5t-81 32.5q-86 0 -126 -114l-108 34q21 83 84.5 135.5t157.5 52.5q110 0 175 -59.5t65 -151.5q0 -61 -31.5 -109t-77.5 -72 q55 -19 96.5 -67.5t41.5 -123.5q0 -115 -73.5 -179.5t-196.5 -64.5q-99 0 -167.5 52t-91.5 126z" glyph-name="three" unicode="3"/>
<glyph d="M22 271l348 527h113v-525h98v-108h-98v-172h-130v172h-331v106zM146 273h207v222q0 54 4 105h-5q-22 -38 -54 -91z" glyph-name="four" unicode="4"/>
<glyph d="M40 147l109 39q18 -42 53 -69t77 -27q63 0 99.5 42.5t36.5 113.5q0 69 -39 113t-99 44q-74 0 -129 -72l-83 32l42 428h400v-109h-279l-24 -207q49 35 119 35q101 0 164 -70.5t63 -190.5q0 -51 -15.5 -97t-46 -85t-83.5 -62t-121 -23q-91 0 -152 45.5t-92 119.5z" glyph-name="five" unicode="5"/>
<glyph d="M181 252q0 -74 35 -118t90 -44q54 0 88 43.5t34 118.5q0 77 -34 120t-89 43q-54 0 -89 -45t-35 -118zM44 359q0 91 16.5 169.5t49.5 142.5t89.5 101t130.5 37q159 0 228 -163l-103 -36q-49 91 -124 91q-102 0 -139 -167q-9 -40 -14 -91q19 34 57 57t89 23 q105 0 171.5 -76.5t66.5 -193.5q0 -118 -67 -194.5t-185 -76.5q-124 0 -189 84q-77 95 -77 293z" glyph-name="six" unicode="6"/>
<glyph d="M46 679v112h502v-89q-187 -298 -279 -709h-136q67 347 262 686h-349z" glyph-name="seven" unicode="7"/>
<glyph d="M195 585q0 -52 29.5 -84t75.5 -32t75 32.5t29 83.5q0 49 -28.5 82.5t-75.5 33.5t-76 -33.5t-29 -82.5zM35 217q0 79 41.5 128.5t96.5 71.5q-114 59 -114 174q0 95 69 156.5t172 61.5t171.5 -61.5t68.5 -156.5q0 -116 -114 -174q59 -24 99.5 -74t40.5 -126 q0 -105 -74.5 -170t-191.5 -65q-111 0 -188 62t-77 173zM171 224q0 -58 36 -96t93 -38t93 38t36 96q0 56 -36 97t-93 41q-56 0 -92.5 -40.5t-36.5 -97.5z" glyph-name="eight" unicode="8"/>
<glyph d="M170 541q0 -72 34.5 -116t87.5 -44q54 0 87.5 44.5t33.5 115.5q0 69 -32.5 114.5t-88.5 45.5q-54 0 -88 -45t-34 -115zM37 146l106 35q46 -91 124 -91q41 0 71.5 23t47.5 62t25 81.5t9 91.5q-49 -74 -147 -74q-99 0 -167.5 72.5t-68.5 193.5q0 119 71.5 194t182.5 75 q94 0 157 -60t86 -158q15 -65 15 -159q0 -215 -70 -332.5t-213 -117.5q-83 0 -144 50t-85 114z" glyph-name="nine" unicode="9"/>
<glyph d="M106 68v156h168v-156h-168zM106 492v156h168v-156h-168z" glyph-name="colon" horiz-adv-x="379" unicode=":"/>
<glyph d="M45 -100l96 324h146l-139 -324h-103zM111 492v156h169v-156h-169z" glyph-name="semicolon" horiz-adv-x="379" unicode=";"/>
<glyph d="M43 325v117l437 327l69 -96l-381 -289l381 -290l-69 -96z" glyph-name="less" unicode="&lt;"/>
<glyph d="M52 224v112h496v-112h-496zM52 445v112h496v-112h-496z" glyph-name="equal" unicode="="/>
<glyph d="M119 -2l-68 96l380 290l-380 289l68 96l438 -327v-117z" glyph-name="greater" unicode="&gt;"/>
<glyph d="M64 621q23 82 88 137t160 55q105 0 170.5 -61.5t65.5 -162.5q0 -48 -18.5 -86t-45 -63.5t-53 -50t-45 -58.5t-18.5 -75v-35h-132v44q0 42 13 77.5t33 58.5t42.5 46.5t42.5 43t33 46.5t13 58q0 48 -26.5 77t-72.5 29q-88 0 -133 -119zM217 -5v152h169v-152h-169z" glyph-name="question" horiz-adv-x="615" unicode="?"/>
<glyph d="M52 372q0 200 132 328.5t339 128.5q189 0 309.5 -114t120.5 -286q0 -82 -21.5 -144t-56.5 -96t-73 -50.5t-78 -16.5q-43 0 -76.5 26t-41.5 66h-1q-14 -35 -54.5 -63t-90.5 -28q-78 0 -131 59t-53 156q0 129 66 203t158 74q68 0 108 -52l3 44h97l-17 -316q-1 -36 10.5 -54 t30.5 -18q44 0 77 54.5t33 148.5q0 139 -87 226t-232 87q-157 0 -257.5 -102.5t-100.5 -260.5q0 -168 97 -265t251 -97q117 0 223 31l19 -87q-103 -37 -242 -37q-210 0 -335.5 126.5t-125.5 328.5zM395 340q0 -46 22 -80t59 -34q43 0 77.5 47.5t34.5 155.5q0 40 -19.5 65.5 t-58.5 25.5q-43 0 -79 -50t-36 -130z" glyph-name="at" horiz-adv-x="1005" unicode="@"/>
<glyph d="M236 302h236l-67 205q-7 22 -15.5 49t-18 59.5t-14.5 48.5h-6q-3 -10 -48 -157zM-4 0l286 791h145l285 -791h-140l-65 196h-306l-65 -196h-140z" glyph-name="A" horiz-adv-x="708" unicode="A"/>
<glyph d="M89 0v791h300q126 0 189 -56t63 -153q0 -58 -27 -99.5t-71 -64.5q50 -18 88 -67.5t38 -120.5q0 -99 -63.5 -164.5t-177.5 -65.5h-339zM221 112h184q53 0 90.5 31t37.5 87q0 53 -34.5 87t-96.5 34h-181v-239zM221 462h155q57 0 93 27.5t36 82.5q0 49 -30.5 77.5 t-94.5 28.5h-159v-216z" glyph-name="B" horiz-adv-x="713" unicode="B"/>
<glyph d="M42 396q0 190 98 301.5t253 111.5q100 0 171.5 -55t106.5 -136l-113 -37q-64 115 -167 115q-98 0 -155.5 -81.5t-57.5 -218.5q0 -139 58 -220t155 -81q63 0 111.5 38t70.5 93l118 -37q-15 -36 -38.5 -69.5t-59 -66t-87.5 -52t-113 -19.5q-152 0 -251.5 110.5t-99.5 303.5 z" glyph-name="C" horiz-adv-x="713" unicode="C"/>
<glyph d="M89 0v791h235q179 0 276 -102t97 -293q0 -65 -12 -121.5t-39.5 -107.5t-69.5 -87.5t-106.5 -58t-146.5 -21.5h-234zM221 111h87q252 0 252 285q0 152 -66 217.5t-184 65.5h-89v-568z" glyph-name="D" horiz-adv-x="737" unicode="D"/>
<glyph d="M89 0v791h519v-113h-387v-214h349v-111h-349v-241h397v-112h-529z" glyph-name="E" horiz-adv-x="649" unicode="E"/>
<glyph d="M89 0v791h504v-113h-372v-226h333v-111h-333v-341h-132z" glyph-name="F" horiz-adv-x="607" unicode="F"/>
<glyph d="M42 396q0 181 97 297t260 116q61 0 112.5 -20t85.5 -51.5t54.5 -60t33.5 -57.5l-113 -37q-21 32 -38.5 53t-53.5 40.5t-80 19.5q-104 0 -163 -82t-59 -218q0 -139 60 -220t156 -81q83 0 130 48t53 122q3 45 3 65h-194v112h322v-442h-91l-12 81q-65 -99 -215 -99 t-249 112.5t-99 301.5z" glyph-name="G" horiz-adv-x="763" unicode="G"/>
<glyph d="M89 0v791h131v-329h320v329h131v-791h-131v351h-320v-351h-131z" glyph-name="H" horiz-adv-x="759" unicode="H"/>
<glyph d="M89 0v791h132v-791h-132z" glyph-name="I" horiz-adv-x="308" unicode="I"/>
<glyph d="M9 147l109 44q12 -41 40.5 -68.5t69.5 -27.5q50 0 77 38t27 110v548h132v-566q0 -116 -60.5 -179.5t-172.5 -63.5q-91 0 -146.5 48t-75.5 117z" glyph-name="J" horiz-adv-x="552" unicode="J"/>
<glyph d="M89 0v791h132v-358h2l307 358h167l-306 -346l314 -445h-159l-238 352l-87 -99v-253h-132z" glyph-name="K" horiz-adv-x="700" unicode="K"/>
<glyph d="M89 0v791h132v-679h358v-112h-490z" glyph-name="L" horiz-adv-x="589" unicode="L"/>
<glyph d="M89 0v791h161l139 -368q15 -41 38 -111.5t30 -91.5h4q50 145 71 203l136 368h163v-791h-130v359q0 90 14 244h-4l-57 -168l-145 -390h-98l-143 390l-59 169h-5q16 -144 16 -245v-359h-131z" glyph-name="M" horiz-adv-x="919" unicode="M"/>
<glyph d="M89 0v791h138l239 -435l88 -160h5q-15 105 -15 228v367h132v-791h-138l-239 427l-88 165h-5q15 -117 15 -228v-364h-132z" glyph-name="N" horiz-adv-x="764" unicode="N"/>
<glyph d="M42 395q0 186 93 300t247 114t246.5 -113.5t92.5 -300.5t-93 -300t-246 -113q-154 0 -247 113t-93 300zM178 395q0 -139 54.5 -219.5t149.5 -80.5q94 0 148.5 80t54.5 220q0 138 -53.5 219.5t-149.5 81.5q-95 0 -149.5 -81.5t-54.5 -219.5z" glyph-name="O" horiz-adv-x="763" unicode="O"/>
<glyph d="M89 0v791h309q124 0 193.5 -66.5t69.5 -175.5q0 -112 -71.5 -177t-189.5 -65h-179v-307h-132zM221 419h161q68 0 106 33t38 97q0 63 -37 96t-108 33h-160v-259z" glyph-name="P" horiz-adv-x="696" unicode="P"/>
<glyph d="M42 395q0 188 93.5 301t246.5 113t246 -114t93 -300q0 -185 -92.5 -299t-246.5 -114t-247 114t-93 299zM178 395q0 -139 54.5 -219.5t149.5 -80.5t149 80.5t54 219.5q0 141 -54 221t-149 80t-149.5 -81t-54.5 -220zM352 249l75 68l294 -305l-75 -67z" glyph-name="Q" horiz-adv-x="763" unicode="Q"/>
<glyph d="M221 428h166q67 0 103 33t36 95q0 55 -37 88.5t-105 33.5h-163v-250zM89 0v791h320q122 0 187.5 -64t65.5 -160q0 -81 -36 -132t-83 -69q38 -26 54 -55t27 -88q24 -118 86 -223h-147q-49 83 -77 213q-11 51 -32.5 77t-67.5 26h-165v-316h-132z" glyph-name="R" horiz-adv-x="718" unicode="R"/>
<glyph d="M27 169l116 39q28 -50 81 -81.5t117 -31.5q66 0 106 32t40 83q0 54 -42.5 84t-124.5 58q-117 39 -158 62q-107 61 -107 177q0 98 77 158t201 60q102 0 174.5 -47.5t105.5 -121.5l-111 -37q-64 93 -170 93q-65 0 -103 -29t-38 -76q0 -14 3 -26.5t12 -23.5t16 -19t23 -17 t25.5 -14t31.5 -13t31.5 -11t35.5 -11.5t35 -11.5q46 -15 81 -32t68.5 -43.5t51.5 -65.5t18 -88q0 -111 -79.5 -172t-205.5 -61q-109 0 -191 50.5t-120 136.5z" glyph-name="S" horiz-adv-x="654" unicode="S"/>
<glyph d="M11 678v113h588v-113h-228v-678h-132v678h-228z" glyph-name="T" horiz-adv-x="608" unicode="T"/>
<glyph d="M85 296v495h133v-495q0 -102 42 -151.5t117 -49.5q77 0 119 51.5t42 149.5v495h132v-495q0 -151 -74 -232.5t-219 -81.5q-140 0 -216 79t-76 235z" glyph-name="U" horiz-adv-x="754" unicode="U"/>
<glyph d="M1 791h143l133 -457q46 -178 51 -196l4 -1q24 92 51 197l133 457h143l-255 -791h-148z" glyph-name="V" horiz-adv-x="659" unicode="V"/>
<glyph d="M13 791h139l81 -436q19 -112 34 -212h5q30 166 39 212l93 436h133l94 -436q7 -33 21.5 -113.5t17.5 -98.5h5q5 31 17.5 106t17.5 106l80 436h139l-178 -791h-151l-90 430q-35 187 -37 201h-4q0 -3 -37 -201l-90 -430h-150z" glyph-name="W" horiz-adv-x="941" unicode="W"/>
<glyph d="M2 0l253 406l-240 385h156l96 -172q9 -17 30.5 -55.5t32.5 -59.5h4q3 6 65 115l97 172h155l-241 -385l254 -406h-153l-108 185q-14 23 -69 120h-4q-58 -104 -67 -120l-107 -185h-154z" glyph-name="X" horiz-adv-x="663" unicode="X"/>
<glyph d="M-2 791h151l122 -233q46 -90 65 -130h4q22 42 66 130l121 233h152l-274 -470v-321h-132v321z" glyph-name="Y" horiz-adv-x="675" unicode="Y"/>
<glyph d="M34 96l410 582h-377v113h540v-98l-411 -581h422v-112h-584v96z" glyph-name="Z" horiz-adv-x="648" unicode="Z"/>
<glyph d="M133 -129v1018h254v-104h-126v-809h126v-105h-254z" glyph-name="bracketleft" horiz-adv-x="476" unicode="["/>
<glyph d="M-16 842h132l291 -899h-132z" glyph-name="backslash" horiz-adv-x="389" unicode="\"/>
<glyph d="M89 -24h128v809h-128v104h255v-1018h-255v105z" glyph-name="bracketright" horiz-adv-x="476" unicode="]"/>
<glyph d="M11 495l215 376h118l215 -376h-131l-107 205l-35 70h-1l-36 -72l-107 -203h-131z" glyph-name="asciicircum" horiz-adv-x="570" unicode="^"/>
<glyph d="M6 -9h515v-104h-515v104z" glyph-name="underscore" horiz-adv-x="524" unicode="_"/>
<glyph d="M180 556l-139 323h145l97 -323h-103z" glyph-name="grave" horiz-adv-x="371" unicode="`"/>
<glyph d="M163 162q0 -32 25.5 -53.5t67.5 -21.5q60 0 102.5 40t42.5 105v53q-46 -11 -111 -21q-127 -20 -127 -102zM35 151q0 163 242 199q88 13 124 24v31q0 42 -30 66t-80 24q-95 0 -164 -78l-77 66q45 53 107.5 82.5t131.5 29.5q129 0 184 -62.5t55 -174.5v-358h-123v72 q-18 -37 -62.5 -63.5t-104.5 -26.5q-95 0 -149 47t-54 122z" glyph-name="a" horiz-adv-x="589" unicode="a"/>
<glyph d="M75 0v817h125v-305q23 34 61.5 58.5t87.5 24.5q106 0 175 -81.5t69 -224.5q0 -65 -15 -118t-39 -87.5t-56.5 -58t-65.5 -33.5t-67 -10q-51 0 -92.5 27.5t-59.5 64.5v-74h-123zM199 289q0 -92 36.5 -145.5t95.5 -53.5q58 0 95 51t37 148q0 91 -35.5 144.5t-96.5 53.5 q-60 0 -96 -54.5t-36 -143.5z" glyph-name="b" horiz-adv-x="629" unicode="b"/>
<glyph d="M36 288q0 139 74.5 223t192.5 84q86 0 145 -52t74 -119l-108 -30q-12 38 -41 65.5t-69 27.5q-65 0 -101.5 -57t-36.5 -142q0 -94 39 -146t99 -52q44 0 77.5 30.5t46.5 69.5l108 -31q-19 -70 -83 -123.5t-150 -53.5q-118 0 -192.5 83.5t-74.5 222.5z" glyph-name="c" horiz-adv-x="555" unicode="c"/>
<glyph d="M36 289q0 142 69.5 224t176.5 82q51 0 88.5 -24.5t57.5 -57.5v304h126v-817h-122v75q-18 -38 -59.5 -65.5t-91.5 -27.5q-45 0 -87 17t-78.5 52t-58 96.5t-21.5 141.5zM166 289q0 -94 36.5 -146.5t96.5 -52.5q58 0 94.5 53.5t36.5 145.5q0 89 -35.5 143.5t-95.5 54.5 q-63 0 -98 -54t-35 -144z" glyph-name="d" horiz-adv-x="629" unicode="d"/>
<glyph d="M36 291q0 139 76.5 221.5t192.5 82.5q114 0 188 -83t74 -216q0 -26 -3 -51h-400q0 -66 39.5 -113.5t108.5 -47.5q48 0 84.5 23.5t55.5 60.5l106 -36q-28 -64 -91 -107t-157 -43q-121 0 -197.5 84t-76.5 225zM166 334h272q0 66 -35 112.5t-98 46.5t-100.5 -47.5 t-38.5 -111.5z" glyph-name="e" horiz-adv-x="601" unicode="e"/>
<glyph d="M24 469v108h88v62q0 89 44.5 133.5t125.5 44.5h91v-107h-73q-31 0 -45.5 -19t-14.5 -61v-53h120v-108h-120v-469h-128v469h-88z" glyph-name="f" horiz-adv-x="373" unicode="f"/>
<glyph d="M168 299q0 -88 34.5 -137t91.5 -49q56 0 90 48t34 139q0 89 -34 138t-89 49q-58 0 -92.5 -51t-34.5 -137zM39 298q0 135 67 216t172 81q53 0 89.5 -26.5t51.5 -58.5v67h126v-497q0 -163 -63.5 -241.5t-195.5 -78.5q-145 0 -225 112l84 58q58 -68 143 -68q55 0 91 42 t39 110q2 40 2 66q-19 -32 -57 -53.5t-81 -21.5q-109 0 -176 80.5t-67 212.5z" glyph-name="g" horiz-adv-x="612" unicode="g"/>
<glyph d="M75 0v817h125v-299h3q23 33 63.5 55t85.5 22q83 0 138 -53.5t55 -170.5v-371h-126v355q0 132 -90 132q-55 0 -92 -47t-37 -110v-330h-125z" glyph-name="h" horiz-adv-x="607" unicode="h"/>
<glyph d="M76 663v139h136v-139h-136zM82 0v577h125v-577h-125z" glyph-name="i" horiz-adv-x="288" unicode="i"/>
<glyph d="M81 663v139h138v-139h-138zM-12 -119h20q79 0 79 112v584h127v-589q0 -107 -47.5 -161t-137.5 -54h-41v108z" glyph-name="j" horiz-adv-x="294" unicode="j"/>
<glyph d="M76 0v817h126v-470l205 230h159l-213 -235l226 -342h-148l-160 253l-69 -76v-177h-126z" glyph-name="k" horiz-adv-x="568" unicode="k"/>
<glyph d="M80 0v817h126v-817h-126z" glyph-name="l" horiz-adv-x="285" unicode="l"/>
<glyph d="M69 0v577h123v-67q15 29 54 57t94 28q95 0 140 -103q7 14 18.5 28t32 33t53 30.5t70.5 11.5q177 0 177 -224v-371h-128v367q0 60 -17 90t-60 30q-51 0 -82.5 -42.5t-31.5 -104.5v-340h-125v370q0 117 -78 117q-54 0 -83.5 -40t-29.5 -105v-342h-127z" glyph-name="m" horiz-adv-x="892" unicode="m"/>
<glyph d="M69 0v577h123v-73h1q15 32 55.5 61.5t104.5 29.5q86 0 137 -53t51 -171v-371h-127v354q0 133 -90 133q-55 0 -91.5 -44t-36.5 -109v-334h-127z" glyph-name="n" horiz-adv-x="602" unicode="n"/>
<glyph d="M166 288q0 -100 41 -149t96 -49q54 0 95 49t41 149q0 102 -41 150.5t-95 48.5t-95.5 -48.5t-41.5 -150.5zM36 288q0 129 68 218t199 89q130 0 198 -89t68 -218q0 -40 -7.5 -80t-26.5 -81.5t-48 -73t-76.5 -51.5t-107.5 -20q-59 0 -106.5 19.5t-77 50t-49 72t-27 82 t-7.5 82.5z" glyph-name="o" horiz-adv-x="604" unicode="o"/>
<glyph d="M200 289q0 -91 34.5 -145t96.5 -54q59 0 96 52.5t37 146.5q0 91 -35.5 144.5t-97.5 53.5q-61 0 -96 -55t-35 -143zM75 -236v813h122v-75q53 93 152 93q105 0 174.5 -82.5t69.5 -223.5q0 -79 -22 -140.5t-58.5 -96.5t-78 -52.5t-85.5 -17.5q-56 0 -93.5 25.5t-54.5 59.5 v-303h-126z" glyph-name="p" horiz-adv-x="629" unicode="p"/>
<glyph d="M166 289q0 -94 36 -146.5t96 -52.5t96 53.5t36 145.5q0 88 -35 143t-96 55q-63 0 -98 -55t-35 -143zM36 289q0 141 69 223.5t176 82.5q50 0 89 -26.5t62 -66.5v75h122v-813h-126v304q-19 -36 -57 -61t-90 -25q-44 0 -86 17.5t-78.5 52.5t-58.5 96.5t-22 140.5z" glyph-name="q" horiz-adv-x="628" unicode="q"/>
<glyph d="M69 0v577h122v-62q19 32 54.5 56t84.5 24q46 0 75 -13v-115q-38 12 -75 12q-65 0 -99.5 -50.5t-34.5 -134.5v-294h-127z" glyph-name="r" horiz-adv-x="402" unicode="r"/>
<glyph d="M26 120l91 53q60 -88 156 -88q47 0 74.5 18.5t27.5 49.5q0 25 -22.5 44t-47.5 28.5t-75 25.5q-9 3 -13 4q-36 12 -60.5 23.5t-51.5 31t-41 49t-14 68.5q0 76 64 122t159 46q71 0 134 -37.5t94 -95.5l-84 -51q-59 81 -143 81q-46 0 -70.5 -18.5t-24.5 -48.5 q0 -25 21.5 -44.5t44.5 -28.5t65 -23q11 -3 16 -5q178 -57 178 -172q0 -71 -59.5 -120.5t-168.5 -49.5q-84 0 -149.5 37t-100.5 101z" glyph-name="s" horiz-adv-x="534" unicode="s"/>
<glyph d="M18 469v108h89v171h126v-171h132v-108h-132v-284q0 -41 16.5 -59t50.5 -18h66v-108h-82q-177 0 -177 176v293h-89z" glyph-name="t" horiz-adv-x="396" unicode="t"/>
<glyph d="M62 209v368h127v-352q0 -135 95 -135q57 0 89 48.5t32 115.5v323h126v-577h-122v67h-1q-14 -31 -53.5 -58t-98.5 -27q-35 0 -66.5 10.5t-61.5 34t-48 70.5t-18 112z" glyph-name="u" unicode="u"/>
<glyph d="M9 577h138l87 -296q8 -30 23.5 -91t21.5 -83h2q6 23 23 84t25 90l86 296h138l-200 -577h-144z" glyph-name="v" horiz-adv-x="560" unicode="v"/>
<glyph d="M9 577h136l60 -290q6 -34 30 -164h4q5 28 16.5 86t15.5 78l61 290h133l62 -292q4 -23 15.5 -78t16.5 -84h4q5 28 16.5 90t13.5 74l59 290h136l-156 -577h-141l-61 281q-13 64 -29 159h-4q-5 -31 -16 -88t-14 -71l-61 -281h-141z" glyph-name="w" horiz-adv-x="796" unicode="w"/>
<glyph d="M6 0l205 296l-195 281h153l74 -125q28 -50 40 -70h4q16 29 39 70l74 125h154l-195 -281l206 -296h-150l-85 139q-8 13 -22 36t-21 36h-4q-4 -7 -43 -72l-85 -139h-149z" glyph-name="x" horiz-adv-x="572" unicode="x"/>
<glyph d="M7 577h139l99 -297q25 -82 38 -133h4q5 18 37 133l91 297h138l-239 -653q-32 -88 -82.5 -124t-125.5 -36h-39v106h18q45 0 73.5 19.5t45.5 67.5l19 57z" glyph-name="y" horiz-adv-x="560" unicode="y"/>
<glyph d="M26 0v84l298 385h-274v108h439v-79l-300 -390h312v-108h-475z" glyph-name="z" horiz-adv-x="526" unicode="z"/>
<glyph d="M62 330v98h34q27 0 41.5 31t14.5 84v194q0 73 41 112.5t109 39.5h90v-104h-67q-21 0 -33.5 -16.5t-12.5 -45.5v-196q0 -97 -76 -148q76 -47 76 -143v-196q0 -64 48 -64h65v-105h-90q-65 0 -107.5 38t-42.5 113v198q0 46 -14.5 78t-41.5 32h-34z" glyph-name="braceleft" horiz-adv-x="476" unicode="{"/>
<glyph d="M95 -168v1094h127v-1094h-127z" glyph-name="bar" horiz-adv-x="316" unicode="|"/>
<glyph d="M85 -24h66q47 0 47 64v196q0 93 76 144q-76 50 -76 147v196q0 29 -12.5 45.5t-33.5 16.5h-67v104h90q68 0 109 -39.5t41 -112.5v-194q0 -115 56 -115h34v-98h-34q-28 0 -42 -32t-14 -78v-198q0 -75 -42.5 -113t-107.5 -38h-90v105z" glyph-name="braceright" horiz-adv-x="476" unicode="}"/>
<glyph d="M68 323q72 185 229 185q44 0 83.5 -21.5t63 -47t52.5 -47t55 -21.5q21 0 39.5 8.5t30 18.5t22.5 29t16 29.5t13 30.5l110 -48q-70 -186 -227 -186q-35 0 -67.5 14.5t-56 34.5t-45 40.5t-44.5 35t-45 14.5q-73 0 -119 -117z" glyph-name="asciitilde" horiz-adv-x="849" unicode="~"/>
<glyph glyph-name="uni00A0" horiz-adv-x="250" unicode=" "/>
<glyph d="M96 -218l10 570h123l8 -570h-141zM83 429v152h169v-152h-169z" glyph-name="exclamdown" horiz-adv-x="334" unicode="¡"/>
<glyph d="M36 289q0 114 53.5 196t150.5 102v83h115v-82q66 -15 109.5 -62t57.5 -102l-107 -30q-14 38 -41.5 65.5t-67.5 27.5q-67 0 -103.5 -56t-36.5 -142q0 -90 37.5 -144.5t101.5 -54.5q45 0 77.5 29.5t45.5 70.5l107 -30q-15 -56 -61.5 -105t-118.5 -67v-88h-115v90 q-90 18 -147 98t-57 201z" glyph-name="cent" horiz-adv-x="554" unicode="¢"/>
<glyph d="M42 334v112h113v158q0 99 66 152t177 53q73 0 129 -39t82 -88l-99 -50q-42 62 -111 62q-50 0 -82 -25.5t-32 -77.5v-145h217v-112h-217v-98q0 -80 -29 -112q39 7 59 7q32 0 82 -18.5t87 -18.5q60 0 121 32l35 -108q-83 -36 -157 -36q-36 0 -106 18.5t-104 18.5 q-38 0 -89 -7.5t-83 -15.5l-32 -8l-32 93q118 27 118 148v105h-113z" glyph-name="sterling" horiz-adv-x="648" unicode="£"/>
<glyph d="M23 160l118 109q-37 52 -37 123q0 73 36 124l-117 107l88 83l111 -108q64 40 132 40q65 0 132 -40l111 108l87 -83l-116 -107q36 -49 36 -124q0 -71 -37 -123l117 -109l-87 -82l-111 107q-64 -40 -132 -40q-70 0 -132 40l-111 -107zM220 392q0 -55 37.5 -94.5t96.5 -39.5 t96.5 39t37.5 95t-38 94.5t-96 38.5q-59 0 -96.5 -40t-37.5 -93z" glyph-name="currency" horiz-adv-x="707" unicode="¤"/>
<glyph d="M-2 791h151l113 -185q50 -86 74 -129h4q11 20 23.5 41.5t28 47.5t23.5 40l112 185h152l-223 -338h153v-94h-205v-105h205v-93h-205v-161h-132v161h-205v93h205v105h-205v94h153z" glyph-name="yen" horiz-adv-x="674" unicode="¥"/>
<glyph d="M95 489v437h127v-437h-127zM95 -167v435h127v-435h-127z" glyph-name="brokenbar" horiz-adv-x="316" unicode="¦"/>
<glyph d="M41 58l85 64q24 -30 63 -49.5t85 -19.5q99 0 99 54q0 18 -13.5 31t-42.5 26l-113 53q-143 64 -143 169q0 84 88 148q-60 48 -60 112q0 73 58.5 118t175.5 45q146 0 228 -110l-83 -66q-61 66 -148 66q-48 0 -73.5 -14.5t-25.5 -39.5q0 -10 3.5 -18t11.5 -16t16 -13.5 t23 -13t26 -12.5t30.5 -13t31.5 -14q89 -41 119 -65q66 -51 66 -129q0 -85 -80 -147q37 -43 37 -97q0 -76 -57.5 -120.5t-173.5 -44.5q-76 0 -140 34.5t-93 81.5zM194 390q0 -32 19 -49.5t62 -37.5l92 -42q49 45 49 90q0 27 -21.5 46.5t-63.5 38.5l-83 42q-54 -40 -54 -88z " glyph-name="section" horiz-adv-x="592" unicode="§"/>
<glyph d="M103 651v140h137v-140h-137zM315 651v140h137v-140h-137z" glyph-name="dieresis" horiz-adv-x="554" unicode="¨"/>
<glyph d="M253 401q0 119 60.5 184.5t158.5 65.5q73 0 117.5 -40.5t61.5 -98.5l-89 -27q-32 75 -89 75q-55 0 -84 -41t-29 -118q0 -81 30.5 -120t82.5 -39q37 0 62.5 24t36.5 57l90 -26q-16 -62 -65.5 -104t-124.5 -42q-97 0 -158 65.5t-61 184.5zM39 400q0 194 119.5 311.5 t300.5 117.5q184 0 302.5 -118.5t118.5 -310.5q0 -189 -118.5 -308t-302.5 -119q-181 0 -300.5 116.5t-119.5 310.5zM133 400q0 -157 90 -251t236 -94q141 0 234.5 91.5t93.5 253.5q0 159 -91.5 253t-236.5 94t-235.5 -94.5t-90.5 -252.5z" glyph-name="copyright" horiz-adv-x="918" unicode="©"/>
<glyph d="M31 307v81h354v-81h-354zM117 577q0 -22 17.5 -37t46.5 -15q42 0 71.5 28t29.5 73v38q-14 -3 -40.5 -8t-40 -7.5t-32.5 -9t-28.5 -14t-16.5 -20t-7 -28.5zM26 570q0 40 19 68t52 42.5t64 22.5t69 14t52 10v21q0 30 -21.5 46.5t-55.5 16.5q-66 0 -114 -55l-55 46 q26 32 71.5 55t96.5 23q91 0 129.5 -43t38.5 -122v-252h-86v51q-38 -63 -117 -63q-66 0 -104.5 33t-38.5 86z" glyph-name="ordfeminine" horiz-adv-x="415" unicode="ª"/>
<glyph d="M40 285l178 265l92 -61l-134 -204l132 -201l-90 -63zM254 285l178 252l88 -68l-131 -184l131 -186l-88 -66z" glyph-name="guillemotleft" horiz-adv-x="559" unicode="«"/>
<glyph d="M50 318v112h500v-302h-121v190h-379z" glyph-name="logicalnot" horiz-adv-x="598" unicode="¬"/>
<glyph d="M60 338v112h487v-112h-487z" glyph-name="uni00AD" horiz-adv-x="607" unicode="­"/>
<glyph d="M293 155v485h200q74 0 114.5 -42t40.5 -101q0 -82 -63 -117q19 -16 27 -34t15 -50q12 -53 59 -141h-119q-32 46 -49 131q-9 43 -19 51q-8 8 -22 8h-77v-190h-107zM400 427h78q29 0 45 16.5t16 43.5q0 24 -16.5 41t-44.5 17h-78v-118zM39 402q0 194 119.5 310.5 t300.5 116.5q184 0 302.5 -118.5t118.5 -308.5t-118 -309.5t-303 -119.5q-180 0 -300 117.5t-120 311.5zM133 402q0 -159 88.5 -250.5t237.5 -91.5q145 0 236.5 90.5t91.5 251.5t-92 250.5t-236 89.5q-147 0 -236.5 -91.5t-89.5 -248.5z" glyph-name="registered" horiz-adv-x="918" unicode="®"/>
<glyph d="M3 745v111h526v-111h-526z" glyph-name="macron" horiz-adv-x="531" unicode="¯"/>
<glyph d="M88 656q0 59 41 100t103 41q60 0 102 -39.5t42 -101.5q0 -60 -42.5 -101t-101.5 -41q-60 0 -102 41t-42 101zM170 656q0 -27 17.5 -45.5t44.5 -18.5q26 0 44 18.5t18 45.5q0 26 -17.5 44.5t-44.5 18.5q-28 0 -45 -18.5t-17 -44.5z" glyph-name="degree" horiz-adv-x="463" unicode="°"/>
<glyph d="M41 429v109h199v175h126v-175h199v-109h-199v-172h-126v172h-199zM43 85v110h521v-110h-521z" glyph-name="plusminus" horiz-adv-x="607" unicode="±"/>
<glyph d="M26 747q5 21 10.5 34.5t21.5 41t46.5 43t72.5 15.5q64 0 104.5 -37.5t40.5 -99.5q0 -66 -67 -135q-6 -7 -36.5 -36t-47.5 -48.5t-29 -41.5h179v-77h-290q0 66 32 114.5t119 131.5q48 45 48 93q0 28 -14.5 43.5t-39.5 15.5q-53 0 -73 -79z" glyph-name="twosuperior" horiz-adv-x="354" unicode="²"/>
<glyph d="M17 509l72 27q28 -64 82 -64q30 0 50 18t20 52q0 30 -22 48.5t-57 18.5q-32 0 -48 -2v77q36 -2 46 -2q28 0 46.5 16.5t18.5 46.5q0 26 -16 42.5t-41 16.5q-27 0 -41 -17.5t-25 -48.5l-75 23q9 37 27.5 62.5t41 37t40.5 15.5t36 4q66 0 105.5 -36t39.5 -91q0 -66 -52 -102 q69 -35 69 -109q0 -68 -44 -107.5t-118 -39.5q-54 0 -96.5 29.5t-58.5 84.5z" glyph-name="threesuperior" horiz-adv-x="354" unicode="³"/>
<glyph d="M89 696l114 189h153l-160 -189h-107z" glyph-name="acute" horiz-adv-x="411" unicode="´"/>
<glyph d="M75 -236v813h126v-352q0 -135 95 -135q58 0 89.5 49t31.5 115v323h126v-577h-121v65h-1q-13 -32 -53 -57.5t-95 -25.5q-45 0 -72 29v-247h-126z" glyph-name="mu" horiz-adv-x="608" unicode="µ"/>
<glyph d="M54 590q0 108 57 174t165 66h319v-907h-104v791h-79v-791h-104v424q-24 -7 -47 -7q-88 0 -147.5 64.5t-59.5 185.5z" glyph-name="paragraph" horiz-adv-x="681" unicode="¶"/>
<glyph d="M104 303v154h168v-154h-168z" glyph-name="periodcentered" horiz-adv-x="375" unicode="·"/>
<glyph d="M46 -143q42 -9 67 -9q55 0 55 29q0 37 -96 42l61 124h111l-32 -66q74 -25 74 -102q0 -48 -37.5 -82.5t-125.5 -34.5q-50 0 -77 9v90z" glyph-name="cedilla" horiz-adv-x="333" unicode="¸"/>
<glyph d="M47 724v72h27q85 0 85 61v18h81v-468h-92v317h-101z" glyph-name="onesuperior" horiz-adv-x="354" unicode="¹"/>
<glyph d="M116 666q0 -70 28.5 -104.5t66.5 -34.5t67 34.5t29 104.5q0 71 -29 105t-67 34q-39 0 -67 -34t-28 -105zM24 666q0 91 47.5 153t139.5 62q91 0 139 -62t48 -153q0 -36 -9 -71t-29 -68.5t-58.5 -54.5t-90.5 -21q-51 0 -89.5 20t-58.5 53.5t-29.5 69t-9.5 72.5zM31 313v80 h361v-80h-361z" glyph-name="ordmasculine" horiz-adv-x="422" unicode="º"/>
<glyph d="M40 469l88 68l178 -252l-178 -252l-88 66l131 186zM252 85l132 200l-134 204l92 61l178 -265l-178 -264z" glyph-name="guillemotright" horiz-adv-x="558" unicode="»"/>
<glyph d="M67 673v89h36q93 0 93 66v25h98v-541h-112v361h-115zM602 142l231 350h92v-340h62v-95h-62v-111h-110v111h-213v85zM715 152h100v106q0 9 0.5 32.5t0.5 27.5l-31 -54zM181 -55l506 897h119l-504 -897h-121z" glyph-name="onequarter" horiz-adv-x="1049" unicode="¼"/>
<glyph d="M67 673v89h36q93 0 93 66v25h98v-541h-112v361h-115zM620 339q35 158 176 158q74 0 121.5 -43t47.5 -116q0 -37 -15.5 -71t-33 -54.5t-50.5 -52.5q-84 -80 -103 -115h201v-95h-337q0 75 33.5 130.5t138.5 155.5q54 51 54 103q0 30 -15.5 46.5t-42.5 16.5 q-17 0 -30.5 -7.5t-21 -16t-14 -24.5t-8 -22.5t-5.5 -21.5zM166 -55l512 897h119l-509 -897h-122z" glyph-name="onehalf" horiz-adv-x="1049" unicode="½"/>
<glyph d="M56 439l89 33q31 -73 92 -73q32 0 53.5 19t21.5 56q0 33 -24 53t-62 20q-31 0 -59 -3v96q22 -2 56 -2q29 0 50 17.5t21 49.5q0 27 -17 45t-44 18q-21 0 -36 -12.5t-22 -26.5t-15 -37l-92 29q18 74 66 108t104 34q76 0 122 -42.5t46 -106.5q0 -71 -57 -115q76 -42 76 -125 q0 -79 -51 -124.5t-136 -45.5q-58 0 -109 31.5t-73 103.5zM607 142l230 350h93v-340h62v-95h-62v-111h-110v111h-213v85zM720 152h100v102q0 9 0.5 34.5t0.5 29.5l-33 -58zM239 -55l516 897h119l-514 -897h-121z" glyph-name="threequarters" horiz-adv-x="1049" unicode="¾"/>
<glyph d="M67 -12q0 48 18.5 86.5t45 64t53 50t45 58.5t18.5 76v32h133v-43q0 -50 -18 -90t-44 -66.5t-52.5 -50.5t-44.5 -55t-18 -68q0 -49 26.5 -77t71.5 -28q88 0 133 118l117 -39q-23 -82 -88.5 -137t-160.5 -55q-104 0 -169.5 61.5t-65.5 162.5zM228 430v151h169v-151h-169z " glyph-name="questiondown" horiz-adv-x="615" unicode="¿"/>
<glyph d="M236 302h236l-67 205q-7 22 -15.5 49t-18 59.5t-14.5 48.5h-6q-3 -10 -48 -157zM-4 0l286 791h145l285 -791h-140l-65 196h-306l-65 -196h-140zM159 1048h153l114 -189h-107z" glyph-name="Agrave" horiz-adv-x="708" unicode="À"/>
<glyph d="M236 302h236l-67 205q-7 22 -15.5 49t-18 59.5t-14.5 48.5h-6q-3 -10 -48 -157zM-4 0l286 791h145l285 -791h-140l-65 196h-306l-65 -196h-140zM273 859l114 189h153l-160 -189h-107z" glyph-name="Aacute" horiz-adv-x="708" unicode="Á"/>
<glyph d="M236 302h236l-67 205q-7 22 -15.5 49t-18 59.5t-14.5 48.5h-6q-3 -10 -48 -157zM-4 0l286 791h145l285 -791h-140l-65 196h-306l-65 -196h-140zM126 859l173 185h108l177 -185h-131l-99 119l-97 -119h-131z" glyph-name="Acircumflex" horiz-adv-x="708" unicode="Â"/>
<glyph d="M236 302h236l-67 205q-7 22 -15.5 49t-18 59.5t-14.5 48.5h-6q-3 -10 -48 -157zM-4 0l286 791h145l285 -791h-140l-65 196h-306l-65 -196h-140zM110 925q64 97 155 97q38 0 89.5 -30.5t70.5 -30.5q52 0 88 62l69 -56q-64 -100 -154 -100q-39 0 -89 30.5t-71 30.5 q-25 0 -48.5 -17t-38.5 -43z" glyph-name="Atilde" horiz-adv-x="708" unicode="Ã"/>
<glyph d="M236 302h236l-67 205q-7 22 -15.5 49t-18 59.5t-14.5 48.5h-6q-3 -10 -48 -157zM-4 0l286 791h145l285 -791h-140l-65 196h-306l-65 -196h-140zM169 892v127h134v-127h-134zM403 892v127h133v-127h-133z" glyph-name="Adieresis" horiz-adv-x="708" unicode="Ä"/>
<glyph d="M236 302h236l-67 205q-7 22 -15.5 49t-18 59.5t-14.5 48.5h-6q-3 -10 -48 -157zM-4 0l286 791h145l285 -791h-140l-65 196h-306l-65 -196h-140zM198 964q0 62 44 106.5t112 44.5t112 -45t44 -106q0 -64 -45.5 -108t-110.5 -44q-64 0 -110 43.5t-46 108.5zM285 964 q0 -29 19.5 -49t49.5 -20q28 0 47.5 19t19.5 50q0 29 -19 49t-48 20t-49 -20.5t-20 -48.5z" glyph-name="Aring" horiz-adv-x="708" unicode="Å"/>
<glyph d="M291 302h205v364h-10zM-5 0l424 791h569v-112h-361v-215h323v-111h-331v-241h379v-112h-502v196h-258l-103 -196h-140z" glyph-name="AE" horiz-adv-x="1029" unicode="Æ"/>
<glyph d="M42 396q0 190 98 301.5t253 111.5q100 0 171.5 -55t106.5 -136l-113 -37q-64 115 -167 115q-98 0 -155.5 -81.5t-57.5 -218.5q0 -139 58 -220t155 -81q63 0 111.5 38t70.5 93l118 -37q-15 -36 -38.5 -69.5t-59 -66t-87.5 -52t-113 -19.5q-152 0 -251.5 110.5t-99.5 303.5 zM274 -146q58 -12 95 -12q25 0 47.5 9.5t22.5 30.5q0 37 -115 37l25 97h113l-15 -53q43 -7 67.5 -30.5t24.5 -59.5q0 -45 -40.5 -78t-125.5 -33q-47 0 -99 13v79z" glyph-name="Ccedilla" horiz-adv-x="713" unicode="Ç"/>
<glyph d="M89 0v791h519v-113h-387v-214h349v-111h-349v-241h397v-112h-529zM164 1048h153l114 -189h-107z" glyph-name="Egrave" horiz-adv-x="649" unicode="È"/>
<glyph d="M89 0v791h519v-113h-387v-214h349v-111h-349v-241h397v-112h-529zM262 859l114 189h153l-160 -189h-107z" glyph-name="Eacute" horiz-adv-x="649" unicode="É"/>
<glyph d="M117 859l173 185h108l177 -185h-131l-99 119l-97 -119h-131zM89 0v791h519v-113h-387v-214h349v-111h-349v-241h397v-112h-529z" glyph-name="Ecircumflex" horiz-adv-x="649" unicode="Ê"/>
<glyph d="M89 0v791h519v-113h-387v-214h349v-111h-349v-241h397v-112h-529zM160 892v127h134v-127h-134zM394 892v127h133v-127h-133z" glyph-name="Edieresis" horiz-adv-x="649" unicode="Ë"/>
<glyph d="M89 0v791h132v-791h-132zM-34 1048h153l114 -189h-107z" glyph-name="Igrave" horiz-adv-x="308" unicode="Ì"/>
<glyph d="M89 0v791h132v-791h-132zM68 859l114 189h153l-160 -189h-107z" glyph-name="Iacute" horiz-adv-x="308" unicode="Í"/>
<glyph d="M89 0v791h132v-791h-132zM-74 859l173 185h108l177 -185h-131l-99 119l-97 -119h-131z" glyph-name="Icircumflex" horiz-adv-x="308" unicode="Î"/>
<glyph d="M89 0v791h132v-791h-132zM-29 892v127h134v-127h-134zM205 892v127h133v-127h-133z" glyph-name="Idieresis" horiz-adv-x="308" unicode="Ï"/>
<glyph d="M89 0v791h235q179 0 276 -102t97 -293q0 -65 -12 -121.5t-39.5 -107.5t-69.5 -87.5t-106.5 -58t-146.5 -21.5h-234zM221 111h87q252 0 252 285q0 152 -66 217.5t-184 65.5h-89v-568zM11 347v104h410v-104h-410z" glyph-name="Eth" horiz-adv-x="737" unicode="Ð"/>
<glyph d="M143 925q64 97 155 97q38 0 89.5 -30.5t70.5 -30.5q52 0 88 62l69 -56q-64 -100 -154 -100q-39 0 -89 30.5t-71 30.5q-25 0 -48.5 -17t-38.5 -43zM89 0v791h138l239 -435l88 -160h5q-15 105 -15 228v367h132v-791h-138l-239 427l-88 165h-5q15 -117 15 -228v-364h-132z " glyph-name="Ntilde" horiz-adv-x="764" unicode="Ñ"/>
<glyph d="M42 395q0 186 93 300t247 114t246.5 -113.5t92.5 -300.5t-93 -300t-246 -113q-154 0 -247 113t-93 300zM178 395q0 -139 54.5 -219.5t149.5 -80.5q94 0 148.5 80t54.5 220q0 138 -53.5 219.5t-149.5 81.5q-95 0 -149.5 -81.5t-54.5 -219.5zM188 1057h153l114 -189h-107z " glyph-name="Ograve" horiz-adv-x="763" unicode="Ò"/>
<glyph d="M42 395q0 186 93 300t247 114t246.5 -113.5t92.5 -300.5t-93 -300t-246 -113q-154 0 -247 113t-93 300zM178 395q0 -139 54.5 -219.5t149.5 -80.5q94 0 148.5 80t54.5 220q0 138 -53.5 219.5t-149.5 81.5q-95 0 -149.5 -81.5t-54.5 -219.5zM305 868l114 189h153 l-160 -189h-107z" glyph-name="Oacute" horiz-adv-x="763" unicode="Ó"/>
<glyph d="M42 395q0 186 93 300t247 114t246.5 -113.5t92.5 -300.5t-93 -300t-246 -113q-154 0 -247 113t-93 300zM178 395q0 -139 54.5 -219.5t149.5 -80.5q94 0 148.5 80t54.5 220q0 138 -53.5 219.5t-149.5 81.5q-95 0 -149.5 -81.5t-54.5 -219.5zM153 868l173 185h108l177 -185 h-131l-99 119l-97 -119h-131z" glyph-name="Ocircumflex" horiz-adv-x="763" unicode="Ô"/>
<glyph d="M143 925q64 97 155 97q38 0 89.5 -30.5t70.5 -30.5q52 0 88 62l69 -56q-64 -100 -154 -100q-39 0 -89 30.5t-71 30.5q-25 0 -48.5 -17t-38.5 -43zM42 395q0 186 93 300t247 114t246.5 -113.5t92.5 -300.5t-93 -300t-246 -113q-154 0 -247 113t-93 300zM178 395 q0 -139 54.5 -219.5t149.5 -80.5q94 0 148.5 80t54.5 220q0 138 -53.5 219.5t-149.5 81.5q-95 0 -149.5 -81.5t-54.5 -219.5z" glyph-name="Otilde" horiz-adv-x="763" unicode="Õ"/>
<glyph d="M42 395q0 186 93 300t247 114t246.5 -113.5t92.5 -300.5t-93 -300t-246 -113q-154 0 -247 113t-93 300zM178 395q0 -139 54.5 -219.5t149.5 -80.5q94 0 148.5 80t54.5 220q0 138 -53.5 219.5t-149.5 81.5q-95 0 -149.5 -81.5t-54.5 -219.5zM198 892v127h134v-127h-134z M432 892v127h133v-127h-133z" glyph-name="Odieresis" horiz-adv-x="763" unicode="Ö"/>
<glyph d="M38 220l183 173l-183 172l82 80l180 -175l179 175l82 -79l-182 -173l182 -174l-82 -79l-179 175l-180 -175z" glyph-name="multiply" unicode="×"/>
<glyph d="M42 395q0 186 93.5 300t246.5 114q84 0 151 -36l41 76h110l-72 -135q110 -115 110 -319q0 -187 -93.5 -300t-246.5 -113q-80 0 -141 30l-40 -74h-108l69 128q-120 115 -120 329zM543 591l-245 -476q31 -20 84 -20q94 0 148.5 80t54.5 220q0 122 -42 196zM478 669 q-42 27 -96 27q-95 0 -149.5 -81.5t-54.5 -219.5q0 -124 50 -208z" glyph-name="Oslash" horiz-adv-x="763" unicode="Ø"/>
<glyph d="M85 296v495h133v-495q0 -102 42 -151.5t117 -49.5q77 0 119 51.5t42 149.5v495h132v-495q0 -151 -74 -232.5t-219 -81.5q-140 0 -216 79t-76 235zM188 1057h153l114 -189h-107z" glyph-name="Ugrave" horiz-adv-x="754" unicode="Ù"/>
<glyph d="M85 296v495h133v-495q0 -102 42 -151.5t117 -49.5q77 0 119 51.5t42 149.5v495h132v-495q0 -151 -74 -232.5t-219 -81.5q-140 0 -216 79t-76 235zM297 868l114 189h153l-160 -189h-107z" glyph-name="Uacute" horiz-adv-x="754" unicode="Ú"/>
<glyph d="M85 296v495h133v-495q0 -102 42 -151.5t117 -49.5q77 0 119 51.5t42 149.5v495h132v-495q0 -151 -74 -232.5t-219 -81.5q-140 0 -216 79t-76 235zM151 868l173 185h108l177 -185h-131l-99 119l-97 -119h-131z" glyph-name="Ucircumflex" horiz-adv-x="754" unicode="Û"/>
<glyph d="M85 296v495h133v-495q0 -102 42 -151.5t117 -49.5q77 0 119 51.5t42 149.5v495h132v-495q0 -151 -74 -232.5t-219 -81.5q-140 0 -216 79t-76 235zM196 892v127h134v-127h-134zM430 892v127h133v-127h-133z" glyph-name="Udieresis" horiz-adv-x="754" unicode="Ü"/>
<glyph d="M-2 791h151l122 -233q46 -90 65 -130h4q22 42 66 130l121 233h152l-274 -470v-321h-132v321zM257 868l114 189h153l-160 -189h-107z" glyph-name="Yacute" horiz-adv-x="675" unicode="Ý"/>
<glyph d="M89 0v791h131v-128h79q81 0 140 -22t91.5 -60t47.5 -82t15 -95q0 -130 -78.5 -196.5t-213.5 -66.5h-81v-141h-131zM220 254h69q165 0 165 152q0 145 -164 145h-70v-297z" glyph-name="Thorn" horiz-adv-x="628" unicode="Þ"/>
<glyph d="M89 0v576q0 113 70.5 173t174.5 60q115 0 185.5 -58t70.5 -158q0 -111 -90 -165v-2q68 -22 108.5 -74.5t40.5 -134.5q0 -109 -67 -172t-183 -63q-73 0 -134 19l2 116q59 -23 127 -23q49 0 84 35.5t35 88.5q0 67 -38.5 103t-109.5 36h-71v112h60q43 0 71.5 31t28.5 86 q0 49 -31.5 79.5t-84.5 30.5q-55 0 -86 -35t-31 -95v-566h-132z" glyph-name="germandbls" horiz-adv-x="692" unicode="ß"/>
<glyph d="M163 162q0 -32 25.5 -53.5t67.5 -21.5q60 0 102.5 40t42.5 105v53q-46 -11 -111 -21q-127 -20 -127 -102zM35 151q0 163 242 199q88 13 124 24v31q0 42 -30 66t-80 24q-95 0 -164 -78l-77 66q45 53 107.5 82.5t131.5 29.5q129 0 184 -62.5t55 -174.5v-358h-123v72 q-18 -37 -62.5 -63.5t-104.5 -26.5q-95 0 -149 47t-54 122zM112 856h153l114 -189h-107z" glyph-name="agrave" horiz-adv-x="589" unicode="à"/>
<glyph d="M163 162q0 -32 25.5 -53.5t67.5 -21.5q60 0 102.5 40t42.5 105v53q-46 -11 -111 -21q-127 -20 -127 -102zM35 151q0 163 242 199q88 13 124 24v31q0 42 -30 66t-80 24q-95 0 -164 -78l-77 66q45 53 107.5 82.5t131.5 29.5q129 0 184 -62.5t55 -174.5v-358h-123v72 q-18 -37 -62.5 -63.5t-104.5 -26.5q-95 0 -149 47t-54 122zM190 670l114 189h153l-160 -189h-107z" glyph-name="aacute" horiz-adv-x="589" unicode="á"/>
<glyph d="M163 162q0 -32 25.5 -53.5t67.5 -21.5q60 0 102.5 40t42.5 105v53q-46 -11 -111 -21q-127 -20 -127 -102zM35 151q0 163 242 199q88 13 124 24v31q0 42 -30 66t-80 24q-95 0 -164 -78l-77 66q45 53 107.5 82.5t131.5 29.5q129 0 184 -62.5t55 -174.5v-358h-123v72 q-18 -37 -62.5 -63.5t-104.5 -26.5q-95 0 -149 47t-54 122zM60 670l173 185h108l177 -185h-131l-99 119l-97 -119h-131z" glyph-name="acircumflex" horiz-adv-x="589" unicode="â"/>
<glyph d="M163 162q0 -32 25.5 -53.5t67.5 -21.5q60 0 102.5 40t42.5 105v53q-46 -11 -111 -21q-127 -20 -127 -102zM35 151q0 163 242 199q88 13 124 24v31q0 42 -30 66t-80 24q-95 0 -164 -78l-77 66q45 53 107.5 82.5t131.5 29.5q129 0 184 -62.5t55 -174.5v-358h-123v72 q-18 -37 -62.5 -63.5t-104.5 -26.5q-95 0 -149 47t-54 122zM56 724q64 97 155 97q38 0 89.5 -30.5t70.5 -30.5q52 0 88 62l69 -56q-64 -100 -154 -100q-39 0 -89 30.5t-71 30.5q-25 0 -48.5 -17t-38.5 -43z" glyph-name="atilde" horiz-adv-x="589" unicode="ã"/>
<glyph d="M163 162q0 -32 25.5 -53.5t67.5 -21.5q60 0 102.5 40t42.5 105v53q-46 -11 -111 -21q-127 -20 -127 -102zM35 151q0 163 242 199q88 13 124 24v31q0 42 -30 66t-80 24q-95 0 -164 -78l-77 66q45 53 107.5 82.5t131.5 29.5q129 0 184 -62.5t55 -174.5v-358h-123v72 q-18 -37 -62.5 -63.5t-104.5 -26.5q-95 0 -149 47t-54 122zM101 700v127h134v-127h-134zM335 700v127h133v-127h-133z" glyph-name="adieresis" horiz-adv-x="589" unicode="ä"/>
<glyph d="M163 162q0 -32 25.5 -53.5t67.5 -21.5q60 0 102.5 40t42.5 105v53q-46 -11 -111 -21q-127 -20 -127 -102zM35 151q0 163 242 199q88 13 124 24v31q0 42 -30 66t-80 24q-95 0 -164 -78l-77 66q45 53 107.5 82.5t131.5 29.5q129 0 184 -62.5t55 -174.5v-358h-123v72 q-18 -37 -62.5 -63.5t-104.5 -26.5q-95 0 -149 47t-54 122zM136 789q0 62 44 106.5t112 44.5t112 -45t44 -106q0 -64 -45.5 -108t-110.5 -44q-64 0 -110 43.5t-46 108.5zM223 789q0 -29 19.5 -49t49.5 -20q28 0 47.5 19t19.5 50q0 29 -19 49t-48 20t-49 -20.5t-20 -48.5z " glyph-name="aring" horiz-adv-x="589" unicode="å"/>
<glyph d="M35 154q0 79 63.5 129.5t188.5 68.5q80 12 114 21v34q0 38 -31 63t-77 25q-95 0 -167 -78l-77 65q93 112 244 112q130 0 188 -85q68 85 184 85q110 0 183.5 -84t73.5 -216q0 -28 -1 -49h-396v-15q4 -56 40 -101t103 -45q93 0 140 84l104 -36q-28 -64 -90.5 -107 t-154.5 -43q-70 0 -125.5 31.5t-89.5 86.5q-86 -118 -214 -118q-94 0 -148.5 47.5t-54.5 124.5zM163 162q0 -30 25 -52.5t66 -22.5q61 0 104 41t43 102v55q-70 -15 -102 -20q-136 -19 -136 -103zM525 334h269q1 67 -36 113t-92 46q-59 0 -93.5 -38.5t-45.5 -97.5z" glyph-name="ae" horiz-adv-x="956" unicode="æ"/>
<glyph d="M36 288q0 139 74.5 223t192.5 84q86 0 145 -52t74 -119l-108 -30q-12 38 -41 65.5t-69 27.5q-65 0 -101.5 -57t-36.5 -142q0 -94 39 -146t99 -52q44 0 77.5 30.5t46.5 69.5l108 -31q-19 -70 -83 -123.5t-150 -53.5q-118 0 -192.5 83.5t-74.5 222.5zM171 -146 q58 -12 95 -12q25 0 47.5 9.5t22.5 30.5q0 37 -115 37l25 97h113l-15 -53q43 -7 67.5 -30.5t24.5 -59.5q0 -45 -40.5 -78t-125.5 -33q-47 0 -99 13v79z" glyph-name="ccedilla" horiz-adv-x="555" unicode="ç"/>
<glyph d="M36 291q0 139 76.5 221.5t192.5 82.5q114 0 188 -83t74 -216q0 -26 -3 -51h-400q0 -66 39.5 -113.5t108.5 -47.5q48 0 84.5 23.5t55.5 60.5l106 -36q-28 -64 -91 -107t-157 -43q-121 0 -197.5 84t-76.5 225zM166 334h272q0 66 -35 112.5t-98 46.5t-100.5 -47.5 t-38.5 -111.5zM124 859h153l114 -189h-107z" glyph-name="egrave" horiz-adv-x="601" unicode="è"/>
<glyph d="M36 291q0 139 76.5 221.5t192.5 82.5q114 0 188 -83t74 -216q0 -26 -3 -51h-400q0 -66 39.5 -113.5t108.5 -47.5q48 0 84.5 23.5t55.5 60.5l106 -36q-28 -64 -91 -107t-157 -43q-121 0 -197.5 84t-76.5 225zM166 334h272q0 66 -35 112.5t-98 46.5t-100.5 -47.5 t-38.5 -111.5zM195 670l114 189h153l-160 -189h-107z" glyph-name="eacute" horiz-adv-x="601" unicode="é"/>
<glyph d="M36 291q0 139 76.5 221.5t192.5 82.5q114 0 188 -83t74 -216q0 -26 -3 -51h-400q0 -66 39.5 -113.5t108.5 -47.5q48 0 84.5 23.5t55.5 60.5l106 -36q-28 -64 -91 -107t-157 -43q-121 0 -197.5 84t-76.5 225zM166 334h272q0 66 -35 112.5t-98 46.5t-100.5 -47.5 t-38.5 -111.5zM75 670l173 185h108l177 -185h-131l-99 119l-97 -119h-131z" glyph-name="ecircumflex" horiz-adv-x="601" unicode="ê"/>
<glyph d="M120 700v127h134v-127h-134zM354 700v127h133v-127h-133zM36 291q0 139 76.5 221.5t192.5 82.5q114 0 188 -83t74 -216q0 -26 -3 -51h-400q0 -66 39.5 -113.5t108.5 -47.5q48 0 84.5 23.5t55.5 60.5l106 -36q-28 -64 -91 -107t-157 -43q-121 0 -197.5 84t-76.5 225z M166 334h272q0 66 -35 112.5t-98 46.5t-100.5 -47.5t-38.5 -111.5z" glyph-name="edieresis" horiz-adv-x="601" unicode="ë"/>
<glyph d="M76 0v577h126v-577h-126zM-47 859h153l114 -189h-107z" glyph-name="igrave" horiz-adv-x="278" unicode="ì"/>
<glyph d="M76 0v577h126v-577h-126zM54 670l114 189h153l-160 -189h-107z" glyph-name="iacute" horiz-adv-x="278" unicode="í"/>
<glyph d="M-87 670l173 185h108l177 -185h-131l-99 119l-97 -119h-131zM76 0v577h126v-577h-126z" glyph-name="icircumflex" horiz-adv-x="278" unicode="î"/>
<glyph d="M-41 700v127h134v-127h-134zM193 700v127h133v-127h-133zM76 0v577h126v-577h-126z" glyph-name="idieresis" horiz-adv-x="278" unicode="ï"/>
<glyph d="M154 631l303 225l72 -82l-301 -223zM36 249q0 127 71 202.5t184 75.5q43 0 78.5 -15.5t50.5 -34.5q-23 98 -101 167t-179 85l45 102q55 -9 105 -28t102 -59.5t89 -97t61 -146.5t24 -202q0 -142 -71.5 -229t-200.5 -87q-117 0 -187.5 75t-70.5 192zM166 255 q0 -73 35.5 -119t96.5 -46q58 0 93 44.5t35 120.5q0 73 -35.5 118t-93.5 45t-94.5 -44t-36.5 -119z" glyph-name="eth" horiz-adv-x="601" unicode="ð"/>
<glyph d="M62 724q64 97 155 97q38 0 89.5 -30.5t70.5 -30.5q52 0 88 62l69 -56q-64 -100 -154 -100q-39 0 -89 30.5t-71 30.5q-25 0 -48.5 -17t-38.5 -43zM69 0v577h123v-73h1q15 32 55.5 61.5t104.5 29.5q86 0 137 -53t51 -171v-371h-127v354q0 133 -90 133q-55 0 -91.5 -44 t-36.5 -109v-334h-127z" glyph-name="ntilde" horiz-adv-x="602" unicode="ñ"/>
<glyph d="M166 288q0 -100 41 -149t96 -49q54 0 95 49t41 149q0 102 -41 150.5t-95 48.5t-95.5 -48.5t-41.5 -150.5zM36 288q0 129 68 218t199 89q130 0 198 -89t68 -218q0 -40 -7.5 -80t-26.5 -81.5t-48 -73t-76.5 -51.5t-107.5 -20q-59 0 -106.5 19.5t-77 50t-49 72t-27 82 t-7.5 82.5zM124 859h153l114 -189h-107z" glyph-name="ograve" horiz-adv-x="604" unicode="ò"/>
<glyph d="M166 288q0 -100 41 -149t96 -49q54 0 95 49t41 149q0 102 -41 150.5t-95 48.5t-95.5 -48.5t-41.5 -150.5zM36 288q0 129 68 218t199 89q130 0 198 -89t68 -218q0 -40 -7.5 -80t-26.5 -81.5t-48 -73t-76.5 -51.5t-107.5 -20q-59 0 -106.5 19.5t-77 50t-49 72t-27 82 t-7.5 82.5zM212 670l114 189h153l-160 -189h-107z" glyph-name="oacute" horiz-adv-x="604" unicode="ó"/>
<glyph d="M73 670l173 185h108l177 -185h-131l-99 119l-97 -119h-131zM166 288q0 -100 41 -149t96 -49q54 0 95 49t41 149q0 102 -41 150.5t-95 48.5t-95.5 -48.5t-41.5 -150.5zM36 288q0 129 68 218t199 89q130 0 198 -89t68 -218q0 -40 -7.5 -80t-26.5 -81.5t-48 -73t-76.5 -51.5 t-107.5 -20q-59 0 -106.5 19.5t-77 50t-49 72t-27 82t-7.5 82.5z" glyph-name="ocircumflex" horiz-adv-x="604" unicode="ô"/>
<glyph d="M62 724q64 97 155 97q38 0 89.5 -30.5t70.5 -30.5q52 0 88 62l69 -56q-64 -100 -154 -100q-39 0 -89 30.5t-71 30.5q-25 0 -48.5 -17t-38.5 -43zM166 288q0 -100 41 -149t96 -49q54 0 95 49t41 149q0 102 -41 150.5t-95 48.5t-95.5 -48.5t-41.5 -150.5zM36 288 q0 129 68 218t199 89q130 0 198 -89t68 -218q0 -40 -7.5 -80t-26.5 -81.5t-48 -73t-76.5 -51.5t-107.5 -20q-59 0 -106.5 19.5t-77 50t-49 72t-27 82t-7.5 82.5z" glyph-name="otilde" horiz-adv-x="604" unicode="õ"/>
<glyph d="M118 700v127h134v-127h-134zM352 700v127h133v-127h-133zM166 288q0 -100 41 -149t96 -49q54 0 95 49t41 149q0 102 -41 150.5t-95 48.5t-95.5 -48.5t-41.5 -150.5zM36 288q0 129 68 218t199 89q130 0 198 -89t68 -218q0 -40 -7.5 -80t-26.5 -81.5t-48 -73t-76.5 -51.5 t-107.5 -20q-59 0 -106.5 19.5t-77 50t-49 72t-27 82t-7.5 82.5z" glyph-name="odieresis" horiz-adv-x="604" unicode="ö"/>
<glyph d="M223 526v146h151v-146h-151zM29 334v112h542v-112h-542zM223 107v147h151v-147h-151z" glyph-name="divide" unicode="÷"/>
<glyph d="M36 288q0 129 68 217.5t199 88.5q61 0 111 -22l39 74h97l-65 -122q83 -83 83 -236q0 -40 -7 -80t-26 -81.5t-48 -73t-76.5 -51.5t-107.5 -20q-59 0 -107 19l-33 -62h-97l58 108q-88 85 -88 241zM415 401l-164 -299q24 -12 52 -12q54 0 95 49t41 149q0 68 -24 113z M360 471q-27 16 -57 16q-54 0 -95.5 -48.5t-41.5 -150.5q0 -71 27 -120z" glyph-name="oslash" horiz-adv-x="604" unicode="ø"/>
<glyph d="M62 209v368h127v-352q0 -135 95 -135q57 0 89 48.5t32 115.5v323h126v-577h-122v67h-1q-14 -31 -53.5 -58t-98.5 -27q-35 0 -66.5 10.5t-61.5 34t-48 70.5t-18 112zM115 859h153l114 -189h-107z" glyph-name="ugrave" unicode="ù"/>
<glyph d="M62 209v368h127v-352q0 -135 95 -135q57 0 89 48.5t32 115.5v323h126v-577h-122v67h-1q-14 -31 -53.5 -58t-98.5 -27q-35 0 -66.5 10.5t-61.5 34t-48 70.5t-18 112zM209 670l114 189h153l-160 -189h-107z" glyph-name="uacute" unicode="ú"/>
<glyph d="M62 209v368h127v-352q0 -135 95 -135q57 0 89 48.5t32 115.5v323h126v-577h-122v67h-1q-14 -31 -53.5 -58t-98.5 -27q-35 0 -66.5 10.5t-61.5 34t-48 70.5t-18 112zM75 670l173 185h108l177 -185h-131l-99 119l-97 -119h-131z" glyph-name="ucircumflex" unicode="û"/>
<glyph d="M122 700v127h134v-127h-134zM356 700v127h133v-127h-133zM62 209v368h127v-352q0 -135 95 -135q57 0 89 48.5t32 115.5v323h126v-577h-122v67h-1q-14 -31 -53.5 -58t-98.5 -27q-35 0 -66.5 10.5t-61.5 34t-48 70.5t-18 112z" glyph-name="udieresis" unicode="ü"/>
<glyph d="M7 577h139l99 -297q25 -82 38 -133h4q5 18 37 133l91 297h138l-239 -653q-32 -88 -82.5 -124t-125.5 -36h-39v106h18q45 0 73.5 19.5t45.5 67.5l19 57zM183 670l114 189h153l-160 -189h-107z" glyph-name="yacute" horiz-adv-x="560" unicode="ý"/>
<glyph d="M206 289q0 -91 36.5 -145t94.5 -54q62 0 97.5 52t35.5 147q0 92 -35 145t-98 53q-58 0 -94.5 -54t-36.5 -144zM82 -236v1053h126v-309q15 37 56.5 61.5t89.5 24.5q108 0 177 -81.5t69 -223.5q0 -80 -22 -141t-58.5 -96t-78.5 -52.5t-87 -17.5q-56 0 -93.5 26t-52.5 58 v-302h-126z" glyph-name="thorn" horiz-adv-x="635" unicode="þ"/>
<glyph d="M76 0v577h126v-577h-126z" glyph-name="dotlessi" horiz-adv-x="278" unicode="ı"/>
<glyph d="M59 703q64 97 155 97q38 0 89.5 -30.5t70.5 -30.5q52 0 88 62l69 -56q-64 -100 -154 -100q-39 0 -89 30.5t-71 30.5q-25 0 -48.5 -17t-38.5 -43z" glyph-name="uni1FC0" horiz-adv-x="634" unicode="῀"/>
<glyph d="M167 1037h153l114 -189h-107z" glyph-name="uniE00C" horiz-adv-x="706" unicode=""/>
<glyph d="M271 848l114 189h153l-160 -189h-107z" glyph-name="uniE00D" horiz-adv-x="706" unicode=""/>
<glyph d="M124 848l173 185h108l177 -185h-131l-99 119l-97 -119h-131z" glyph-name="uniE00E" horiz-adv-x="706" unicode=""/>
<glyph d="M171 873v127h134v-127h-134zM405 873v127h133v-127h-133z" glyph-name="uniE010" horiz-adv-x="706" unicode=""/>
<glyph d="M195 900q0 62 44 106.5t112 44.5t112 -45t44 -106q0 -64 -45.5 -108t-110.5 -44q-64 0 -110 43.5t-46 108.5zM282 900q0 -29 19.5 -49t49.5 -20q28 0 47.5 19t19.5 50q0 29 -19 49t-48 20t-49 -20.5t-20 -48.5z" glyph-name="uniE011" horiz-adv-x="715" unicode=""/>
<glyph d="M290 -146q58 -12 95 -12q25 0 47.5 9.5t22.5 30.5q0 37 -115 37l25 97h113l-15 -53q43 -7 67.5 -30.5t24.5 -59.5q0 -45 -40.5 -78t-125.5 -33q-47 0 -99 13v79z" glyph-name="uniE012" horiz-adv-x="706" unicode=""/>
<glyph d="M12 347v104h410v-104h-410z" glyph-name="uniE030" horiz-adv-x="737" unicode=""/>
</font>
</defs>
</svg>
